<svg width="428" height="1221" viewBox="0 0 428 1221" fill="none" xmlns="http://www.w3.org/2000/svg">
<g clip-path="url(#clip0_6_614)">
<mask id="mask0_6_614" style="mask-type:alpha" maskUnits="userSpaceOnUse" x="0" y="0" width="428" height="1221">
<path d="M428 0H0V1221H428V0Z" fill="#D9D9D9"/>
</mask>
<g mask="url(#mask0_6_614)">
<path d="M1142 -6H-1032V1354.35H1142V-6Z" fill="#60DCE8"/>
<path style="mix-blend-mode:screen" d="M1453 440.966C1384.46 371.007 1300.67 312.254 1160.73 312.254C815.038 312.254 736.472 622.268 261.929 622.268C-212.613 622.268 -96.1377 524.668 -444.974 345.383C-651.478 239.268 -816.602 313.61 -904 388.873V1354.35H1453V440.966Z" fill="url(#paint0_linear_6_614)"/>
<path d="M1082.49 520.35C1081.42 520.038 1080.35 519.697 1079.27 519.356C1077.88 519.469 1076.55 519.555 1075.3 519.64C1067.97 538.39 1039.72 540.918 1027.2 555.919C1016.76 568.39 1008.81 598.476 1023.86 610.038C1003.1 626.232 982.919 596.118 971.61 620.919C943.513 625.72 939.308 630.209 921.04 641.232C914.052 645.436 889.521 659.584 881.518 666.743C857.451 688.193 881.431 729.784 854.319 746.574C843.619 753.193 803.546 754.557 791.281 755.097C793.049 755.011 760.689 757.085 763.734 755.58C754.658 760.04 754.455 765.125 747.989 769.131C736.1 776.517 724.211 791.887 704.813 797.597C684.312 803.648 654.649 792.597 656.91 819.785C607.355 821.092 646.501 844.046 646.385 859.558C665.928 862.257 674.743 874.047 668.712 888.166C632.785 882.229 649.574 904.047 638.005 916.689C626.783 928.962 604.311 932.144 584.042 936.746C571.399 939.616 550.203 945.78 539.3 947.655C527.093 949.758 514.595 953.565 501.837 949.729C483.714 944.275 479.857 923.053 453.703 917.172C450.223 919.786 448.628 920.809 445.061 922.996C423.343 897.001 411.396 915.695 393.737 927.968C383.212 935.269 388.141 936.632 371.381 945.241C358.362 951.917 339.775 947.769 329.51 958.82C311.068 978.622 342.327 979.928 303.21 998.593C282.391 1008.54 235.3 1008.62 236.112 1029.84C178.09 1039.13 225.036 1068.91 181.831 1076.44C198.33 1100.47 191.864 1096.58 165.158 1113.17C153.327 1120.53 141.641 1124.28 131.319 1135.16C125.374 1141.41 140.221 1147.15 131.638 1153.79C116.907 1165.21 2.31287 1169.31 51.1721 1194.45C19.3049 1210.75 2.77686 1213.65 2.92184 1237.83C2.86385 1229.05 17.6811 1269.25 11.6498 1261.95C21.4217 1273.79 27.1049 1276.07 43.0241 1283.11C128.622 1321.1 246.116 1304.05 338.47 1293.99C472.695 1279.36 605.992 1261.55 739.435 1274.36C790.875 1279.31 844.344 1277.66 896.045 1277.57C954.212 1277.49 1021.08 1285.47 1082.52 1283.34V520.35H1082.49Z" fill="#5FDAE6"/>
<path d="M69.7773 1140.46C77.0198 1136.55 77.4321 1125.94 73.2731 1118.95C69.114 1111.96 61.8715 1107.37 55.6867 1101.98C49.5019 1096.59 43.9087 1089.21 44.8947 1081.17C45.8089 1073.75 52.0297 1068.12 54.9697 1061.23C59.0571 1051.66 56.4038 1040.45 51.2229 1031.39C46.042 1022.34 38.5665 1014.79 32.1845 1006.52C25.7846 998.247 20.281 988.674 20.1017 978.294C19.9225 967.914 26.6272 956.884 37.0248 954.952C21.8407 959.308 7.24809 967.598 -1.41063 980.577C-10.0514 993.557 -11.5394 1011.72 -2.36081 1024.35C1.76239 1030.02 7.62456 1034.22 12.4828 1039.29C17.341 1044.37 21.3745 1051.03 20.3885 1057.93C18.8289 1068.94 5.65255 1075.23 2.90972 1086.01C0.471657 1095.57 7.24804 1105.28 15.5662 1110.81C23.8843 1116.35 33.7979 1119.1 42.4746 1124.09C51.1512 1129.06 59.0212 1137.51 58.5372 1147.35" fill="url(#paint1_linear_6_614)"/>
<path d="M90.8056 1139.93C69.6518 1131.8 56.7264 1107.16 62.2658 1085.57C64.919 1075.23 71.2653 1065.22 69.4188 1054.71C66.2995 1036.96 41.0762 1025.82 44.7333 1008.15C47.028 997.07 59.9174 991.274 64.9728 981.104C68.8988 973.201 67.5543 963.804 65.3314 955.285C63.1084 946.767 60.0609 938.178 60.8855 929.431C61.7102 920.684 67.8591 911.586 76.7867 910.796C72.8249 922.335 82.1649 933.857 90.9311 942.499C99.6795 951.14 109.342 962.206 106.079 973.956C102.028 988.499 80.5872 993.575 77.6472 1008.36C75.3167 1020.1 86.0191 1030.07 95.7356 1037.29C105.452 1044.51 116.387 1054.05 114.702 1065.89C113.25 1076.05 103.139 1082.38 95.0543 1088.93C86.9693 1095.48 79.7626 1106.84 85.5888 1115.4C88.6543 1119.88 94.4268 1121.88 97.9046 1126.06C101.382 1130.24 99.7333 1138.88 94.2835 1138.04" fill="url(#paint2_linear_6_614)"/>
<path d="M89.2641 1134.54C79.1353 1127.34 81.0715 1111.31 88.7622 1101.66C96.4528 1092 108.052 1086.21 117.302 1077.95C126.552 1069.7 133.615 1056.51 128.327 1045.41C122.949 1034.13 106.761 1029.32 104.502 1017.06C102.924 1008.43 109.342 1000.3 116.603 995.191C123.863 990.08 132.396 986.567 138.509 980.174C150.108 968.037 148.835 946.398 135.892 935.667C148.369 937.212 159.807 945.186 165.418 956.199C171.029 967.211 170.617 980.981 164.36 991.66C158.48 1001.71 147.527 1010.31 148.387 1021.85C149.481 1036.24 168.519 1044.28 170.115 1058.63C171.208 1068.59 163.213 1077.41 154.447 1082.59C145.68 1087.77 135.605 1090.86 127.753 1097.29C119.901 1103.72 114.9 1115.38 120.403 1123.83C106.94 1124.69 94.0685 1132 86.6109 1143.01" fill="url(#paint3_linear_6_614)"/>
<path d="M12.3036 975.765C12.3036 975.765 -2.75505 996.982 10.8874 1014.97C24.5298 1032.95 45.2534 1050.48 33.9594 1071.7C22.6654 1092.92 23.1315 1105.37 58.9137 1126.13" stroke="#62883F" stroke-width="0.79" stroke-linecap="round" stroke-linejoin="round"/>
<path d="M69.867 924.566C69.867 924.566 68.9167 949.928 79.7446 961.011C90.5725 972.076 75.0299 986.848 68.4507 999.3C61.8535 1011.75 57.6228 1030.2 73.1655 1043.12C88.7081 1056.03 89.1742 1073.56 82.111 1084.17C75.0478 1094.78 66.1023 1110.01 79.2786 1123.37" stroke="#62883F" stroke-width="0.79" stroke-linecap="round" stroke-linejoin="round"/>
<path d="M152.456 950.385C152.456 950.385 161.868 970.215 152.456 982.211C143.045 994.207 123.271 999.283 125.62 1015.42C127.968 1031.57 161.402 1053.71 149.158 1065.69C136.914 1077.69 115.724 1087.84 107.262 1100.75C98.783 1113.66 101.615 1126.11 101.615 1126.11" stroke="#62883F" stroke-width="0.79" stroke-linecap="round" stroke-linejoin="round"/>
<path d="M1027.77 1176.48C1008.92 1163.8 1123.11 1010.35 1101.19 1001.2H828.113C675.769 1020.92 408.545 1089.37 188.035 1061.4C-14.564 1020.48 -324.79 933.387 -530.869 903.698C-657.148 885.537 -877.652 925.145 -996.305 962.284C-1048.79 978.703 -1098.87 998.903 -1147 1021.62V1354.35H1027.74V1176.48H1027.77Z" fill="#EFEED9"/>
<g style="mix-blend-mode:multiply">
<path d="M427.259 371.578C429.55 373.68 432.914 376.379 436.973 378.197C437.205 378.708 438.452 381.379 440.424 382.572C442.627 383.907 450.921 381.606 455.096 379.504C457.822 378.14 459.445 376.208 460.257 375.043C462.403 373.509 464.201 371.919 465.477 370.668C468.028 372.998 472.32 376.322 476.959 377.259C476.959 377.259 478.467 371.009 474.524 368.026C478.467 365.043 476.959 358.793 476.959 358.793C472.146 359.788 467.652 363.339 465.158 365.668C461.504 362.146 454.255 356.407 445.904 356.407C445.875 356.407 445.846 356.407 445.817 356.407C445.904 356.35 445.962 356.322 446.02 356.293C447.209 355.725 453.095 356.009 454.864 356.521C456.633 357.032 457.387 355.952 457.387 355.952C456.575 354.731 457.967 354.333 458.257 353.651C458.547 352.969 457.851 352.032 457.851 352.032C450.659 351.975 445.933 355.384 444.425 356.066C444.193 356.18 443.961 356.322 443.671 356.549C436.712 357.373 430.71 361.918 427.259 365.1C425.375 366.862 425.375 369.816 427.259 371.578Z" fill="#5FDAE6"/>
</g>
<g style="mix-blend-mode:multiply">
<path d="M407.02 340.498C408.615 341.975 410.992 343.878 413.863 345.157C414.008 345.526 414.907 347.373 416.299 348.225C417.864 349.162 423.693 347.543 426.621 346.066C428.535 345.1 429.695 343.765 430.246 342.912C431.754 341.833 433.029 340.725 433.899 339.844C435.697 341.464 438.713 343.822 441.961 344.475C441.961 344.475 443.033 340.071 440.25 337.969C443.033 335.867 441.961 331.463 441.961 331.463C438.568 332.145 435.407 334.674 433.668 336.293C431.087 333.821 425.983 329.759 420.126 329.759H420.068C420.126 329.73 420.184 329.702 420.213 329.674C421.054 329.276 425.201 329.475 426.447 329.844C427.694 330.185 428.216 329.446 428.216 329.446C427.665 328.594 428.622 328.31 428.825 327.827C429.028 327.344 428.535 326.691 428.535 326.691C423.49 326.662 420.155 329.049 419.111 329.532C418.966 329.588 418.763 329.73 418.589 329.873C413.689 330.469 409.455 333.651 407.049 335.895C405.715 337.145 405.715 339.219 407.049 340.441L407.02 340.498Z" fill="#5FDAE6"/>
</g>
<g style="mix-blend-mode:multiply">
<path d="M355.638 323.736C357.871 325.81 361.205 328.452 365.207 330.27C365.439 330.782 366.657 333.395 368.629 334.589C370.803 335.924 378.98 333.623 383.098 331.577C385.794 330.242 387.389 328.339 388.172 327.174C390.289 325.668 392.058 324.106 393.304 322.884C395.798 325.157 400.061 328.452 404.613 329.39C404.613 329.39 406.121 323.225 402.206 320.27C406.092 317.344 404.613 311.151 404.613 311.151C399.858 312.117 395.45 315.64 392.986 317.941C389.39 314.475 382.257 308.821 374.022 308.821C373.993 308.821 373.964 308.821 373.935 308.821C374.022 308.764 374.08 308.736 374.138 308.708C375.327 308.168 381.097 308.424 382.866 308.935C384.606 309.418 385.33 308.395 385.33 308.395C384.547 307.174 385.881 306.804 386.171 306.122C386.461 305.469 385.765 304.531 385.765 304.531C378.69 304.475 374.022 307.827 372.543 308.509C372.311 308.594 372.079 308.764 371.818 308.963C364.946 309.787 359.06 314.247 355.638 317.401C353.753 319.134 353.753 322.06 355.638 323.793V323.736Z" fill="#5FDAE6"/>
</g>
<g style="mix-blend-mode:multiply">
<path d="M380.285 396.322C382.633 398.51 386.142 401.265 390.318 403.169C390.55 403.709 391.825 406.436 393.884 407.686C396.175 409.078 404.729 406.691 409.049 404.532C411.862 403.14 413.544 401.152 414.385 399.93C416.617 398.368 418.444 396.72 419.778 395.413C422.417 397.799 426.853 401.237 431.638 402.231C431.638 402.231 433.204 395.754 429.115 392.686C433.204 389.618 431.638 383.14 431.638 383.14C426.65 384.163 422.04 387.856 419.459 390.242C415.69 386.606 408.209 380.669 399.568 380.669C399.539 380.669 399.509 380.669 399.48 380.669C399.567 380.612 399.626 380.583 399.712 380.555C400.959 379.987 407.02 380.271 408.846 380.782C410.673 381.294 411.427 380.214 411.427 380.214C410.615 378.936 412.007 378.538 412.326 377.856C412.645 377.174 411.92 376.18 411.92 376.18C404.497 376.123 399.596 379.646 398.06 380.328C397.828 380.441 397.567 380.612 397.277 380.811C390.086 381.663 383.88 386.35 380.314 389.646C378.342 391.464 378.342 394.532 380.314 396.322H380.285Z" fill="#5FDAE6"/>
</g>
<g style="mix-blend-mode:multiply">
<path d="M347.664 365.271C349.983 367.401 353.405 370.129 357.523 372.004C357.755 372.515 359.001 375.214 361.031 376.436C363.264 377.799 371.702 375.441 375.935 373.339C378.69 371.947 380.343 370.015 381.155 368.822C383.33 367.288 385.156 365.668 386.432 364.39C389.013 366.748 393.391 370.129 398.089 371.066C398.089 371.066 399.626 364.703 395.624 361.691C399.626 358.651 398.089 352.316 398.089 352.316C393.188 353.31 388.665 356.947 386.113 359.305C382.402 355.725 375.036 349.901 366.569 349.901C366.54 349.901 366.511 349.901 366.482 349.901C366.569 349.844 366.627 349.816 366.685 349.788C367.903 349.219 373.877 349.504 375.674 350.015C377.472 350.526 378.226 349.447 378.226 349.447C377.414 348.197 378.806 347.799 379.096 347.117C379.386 346.435 378.69 345.469 378.69 345.469C371.383 345.413 366.598 348.878 365.091 349.56C364.859 349.674 364.598 349.844 364.337 350.043C357.261 350.896 351.172 355.469 347.693 358.737C345.779 360.526 345.779 363.509 347.693 365.299L347.664 365.271Z" fill="#5FDAE6"/>
</g>
<path d="M-18.6486 1198.97C-18.6486 1198.97 456.916 1157.78 710.731 1147.15C933.951 1137.8 1171.01 1149.24 1362 1189.53V1354.35H-819.051C-1337.59 968.481 -660.426 1230.04 -18.6486 1198.97Z" fill="#E8E6C9"/>
</g>
</g>
<defs>
<linearGradient id="paint0_linear_6_614" x1="-904" y1="1191.95" x2="-899.561" y2="-195.156" gradientUnits="userSpaceOnUse">
<stop/>
<stop offset="1" stop-color="#60DCE8"/>
</linearGradient>
<linearGradient id="paint1_linear_6_614" x1="20.0121" y1="979.155" x2="44.5539" y2="1152.74" gradientUnits="userSpaceOnUse">
<stop stop-color="#83B554"/>
<stop offset="1" stop-color="#52B554"/>
</linearGradient>
<linearGradient id="paint2_linear_6_614" x1="79.8343" y1="942.551" x2="79.4041" y2="1152" gradientUnits="userSpaceOnUse">
<stop stop-color="#83B554"/>
<stop offset="1" stop-color="#52B554"/>
</linearGradient>
<linearGradient id="paint3_linear_6_614" x1="153.891" y1="972.094" x2="114.65" y2="1132.74" gradientUnits="userSpaceOnUse">
<stop stop-color="#83B554"/>
<stop offset="1" stop-color="#52B554"/>
</linearGradient>
<clipPath id="clip0_6_614">
<rect width="428" height="1221" fill="white"/>
</clipPath>
</defs>
</svg>
