<svg width="658" height="42" viewBox="0 0 658 42" fill="none" xmlns="http://www.w3.org/2000/svg">
<g clip-path="url(#clip0_48_33)">
<rect width="658" height="42" fill="#FFFEF3"/>
<rect width="658" height="42" fill="#7DEAF5"/>
<path d="M302.324 42C296.186 42 291.209 38.5646 291.209 34.3269C291.209 30.0892 296.186 26.6538 302.324 26.6538C308.463 26.6538 313.439 30.0892 313.439 34.3269C313.439 38.5646 308.463 42 302.324 42Z" fill="white" fill-opacity="0.49"/>
<path d="M232.301 21C221.865 21 213.406 15.0334 213.406 7.67311C213.406 0.312858 221.865 -5.65381 232.301 -5.65381C242.736 -5.65381 251.196 0.312858 251.196 7.67311C251.196 15.0334 242.736 21 232.301 21Z" fill="white" fill-opacity="0.49"/>
<path d="M36.6791 21C26.2435 21 17.7838 15.0334 17.7838 7.67311C17.7838 0.312858 26.2435 -5.65381 36.6791 -5.65381C47.1146 -5.65381 55.5743 0.312858 55.5743 7.67311C55.5743 15.0334 47.1146 21 36.6791 21Z" fill="white" fill-opacity="0.49"/>
<path d="M127.265 33.9231C118.978 33.9231 112.26 29.2221 112.26 23.4231C112.26 17.6241 118.978 12.9231 127.265 12.9231C135.553 12.9231 142.271 17.6241 142.271 23.4231C142.271 29.2221 135.553 33.9231 127.265 33.9231Z" fill="white" fill-opacity="0.49"/>
<path d="M384.019 18.5769C380.028 18.5769 376.794 16.2264 376.794 13.3269C376.794 10.4274 380.028 8.0769 384.019 8.0769C388.009 8.0769 391.243 10.4274 391.243 13.3269C391.243 16.2264 388.009 18.5769 384.019 18.5769Z" fill="white" fill-opacity="0.49"/>
</g>
<defs>
<clipPath id="clip0_48_33">
<rect width="658" height="42" fill="white"/>
</clipPath>
</defs>
</svg>
