<svg width="316" height="85" viewBox="0 0 316 85" fill="none" xmlns="http://www.w3.org/2000/svg">
<g filter="url(#filter0_d_442_2167)">
<path d="M9.65723 9.31226L12.901 8.88328L9.98201 8.83629L9.65723 9.31226Z" fill="#32428B"/>
<path d="M69.9545 73.2038L62.9359 72.8095C60.834 73.5674 58.6769 74.5928 56.4463 75.7919L67.7566 76.4333L82.8908 75.5202C80.5663 74.4478 78.3254 73.5224 76.2603 72.8238L69.9545 73.2038Z" fill="#32428B"/>
<path d="M191.655 68.7283L217.236 67.09L232.578 67.6109C226.581 66.6549 220.243 65.991 213.661 65.8133C205.121 65.5824 197.853 66.7774 191.655 68.7283Z" fill="#32428B"/>
<path d="M19.2915 70.3383L6.19588 64.3837L11.9808 37.0681L8.66344 21.6698L9.62758 9.35202L7.43579 12.5428L6.46756 24.8974L9.78691 40.2936L4 67.6133L17.0936 73.57L56.4458 75.7925C58.6764 74.5934 60.8355 73.5679 62.9354 72.808L19.2915 70.3383Z" fill="#32428B"/>
<path d="M303.932 66.2458L304.737 63.3083L303.579 66.7279L219.431 63.8558L132.028 69.459L76.2612 72.8234C78.3264 73.5241 80.5652 74.4474 82.8897 75.5178L129.835 72.6886L191.654 68.7277C197.854 66.7789 205.122 65.5839 213.66 65.8148C220.242 65.9904 226.58 66.6564 232.577 67.6124L301.389 69.9513L303.932 66.2458Z" fill="#32428B"/>
<path d="M68.9297 71.4437C66.981 71.5745 64.9874 72.0647 62.9365 72.8083L69.9552 73.2046L76.263 72.8226C73.3889 71.8502 70.8499 71.3089 68.9297 71.4437Z" fill="#32428B"/>
<path d="M219.432 63.8558L303.578 66.7279L304.736 63.3084L309.455 46.0451L302.83 3.70499L282.318 5.55981L234.139 7.06736L190.646 4.98171L167.243 11.0242L129.202 11.9148L63.4485 9.65553L12.9024 8.88337L9.65863 9.31234L9.62799 9.3532L8.66181 21.6689L11.9812 37.0672L6.19629 64.3849L19.2919 70.3375L62.9358 72.8071C64.9867 72.0636 66.9824 71.5754 68.929 71.4446C70.8492 71.3098 73.3882 71.8491 76.2623 72.8235L132.029 69.457L219.432 63.8558Z" fill="#32428B"/>
<path d="M107.108 6.44261L131.402 8.68555L141.584 7.97467L131.747 8.2055L107.108 6.44261Z" fill="#315597"/>
<path d="M284.861 1.85272L236.686 3.36232L194.152 2.62693L194.101 2.63918L236.337 3.84237L284.514 2.33686L305.03 0.479996L311.651 42.8201L303.748 66.2382L303.933 66.2463L312 42.3421L305.378 -4.57764e-05L284.861 1.85272Z" fill="#315597"/>
<path d="M9.94824 9.27222L13.7599 8.77174L9.98297 8.83507L9.94824 9.27222Z" fill="#315597"/>
<path d="M68.9294 71.444C67.3851 71.5482 65.8102 71.8812 64.2026 72.3817L70.3062 72.7249L75.0697 72.4409C72.6879 71.7116 70.5819 71.3256 68.9294 71.444Z" fill="#315597"/>
<path d="M219.783 63.3801L303.746 66.2379L311.649 42.8198L305.028 0.479713L284.514 2.33657L236.335 3.84208L194.099 2.6389L169.793 7.31885L141.585 7.97457L131.401 8.68544L107.107 6.4425L58.867 2.99229L38.9019 8.31366L13.7606 8.77124L9.94687 9.27171L9.00928 21.1953L12.3348 36.5894L6.54785 63.9133L19.6455 69.8658L64.2025 72.3805C65.8101 71.88 67.385 71.547 68.9293 71.4449C70.5818 71.3244 72.6878 71.7125 75.0696 72.4397L132.381 68.9793L219.783 63.3801Z" fill="#2A4474"/>
<path d="M205.201 58.8648C191.133 60.1803 185.526 59.3857 183.649 58.9403C185.189 57.8965 190.753 55.2389 210.675 51.1799C226.841 47.887 231.108 45.7809 231.266 43.8485C231.284 43.6115 231.245 43.3807 231.165 43.1519C228.796 36.7847 183.722 40.5392 170.361 42.5493C156.011 44.7126 151.395 43.0212 145.018 40.6741C137.991 38.0982 129.24 34.8829 106.356 34.6582C78.7611 34.3906 68.8174 38.0185 56.2345 42.6208C48.2905 45.5174 39.2863 48.8124 23.7742 51.7703C17.5992 52.9489 12.5354 53.6639 8.38061 54.0704L7.55127 57.9843C12.4128 57.4961 18.1936 56.5932 25.1531 55.2695C41.1166 52.2217 50.3393 48.8532 58.4855 45.8729C70.5271 41.4707 80.0399 37.9981 106.527 38.2616C128.298 38.4761 136.495 41.4809 143.085 43.8914C150.065 46.4632 155.572 48.4876 171.517 46.0792C192.577 42.9007 216.503 43.0518 222.705 44.1713C221.071 44.8474 217.398 46.0363 209.219 47.7032C201.005 49.3721 174.167 55.2389 173.746 60.3682L173.815 61.0199C174.998 64.6927 186.208 64.3679 203.908 62.6418L206.006 62.4396C219.577 61.1771 239.404 60.8687 260.396 60.5419C276.262 60.3008 292.466 60.0495 306.071 59.3489L307.317 55.6617C293.488 56.4278 276.591 56.6851 260.088 56.9446C238.95 57.2653 218.991 57.588 205.201 58.8648Z" fill="#32428B"/>
<path d="M260.961 25.9569C246.444 28.2244 237.454 26.2 236.974 25.0847C237.054 24.623 239.491 22.5333 249.49 20.276C262.089 17.4101 271.667 11.4289 272.394 7.85203C272.772 5.93798 271.963 4.13627 270.157 2.78397L243.876 3.60311C242.83 3.90135 241.801 4.22002 240.81 4.54482C225.378 9.66191 211.126 9.19821 194.619 8.67118C183.497 8.31778 172.021 7.946 158.807 9.19821C125.382 12.3543 112.759 12.4952 85.2172 12.1173C65.5707 11.8497 59.2486 12.9753 45.3972 15.4654C39.0853 16.595 31.2006 17.886 19.784 19.6918C15.5924 20.3496 11.9319 20.8296 8.70043 21.1728L8.66162 21.6692L9.63189 26.1632C12.7204 25.9304 16.2052 25.5443 20.1435 24.9621C27.3624 23.8938 33.5946 22.3453 38.6073 21.085L46.7944 19.2036C60.223 16.7993 66.351 15.7064 85.3663 15.9597L102.408 16.3294C119.696 16.7952 133.355 17.1588 159.446 14.7034L164.357 14.2275C175.087 13.1938 185.213 12.2072 194.639 12.5136C211.069 13.0406 226.573 13.5411 243.045 8.07469C253.236 4.69598 259.687 5.15765 262.109 6.58348C262.93 7.06557 263.261 7.67431 263.104 8.44035C262.74 10.2584 259.111 14.0211 247.804 16.5868C232.335 20.0942 229.753 24.9213 230.652 27.2255C232.834 32.747 251.524 31.3947 262.224 29.7258C280.152 26.9293 298.024 26.6596 309.207 27.2275L308.883 25.1112C297.517 23.9183 279.699 23.0358 260.961 25.9569Z" fill="#32428B"/>
<path d="M252.333 3.3396L266.51 2.90041C263.186 2.06492 257.908 2.35091 252.333 3.3396Z" fill="#315597"/>
<path d="M261.263 27.5768C246.868 29.8238 236.418 28.0875 235.56 25.914C235.139 24.862 237.507 22.3944 248.97 19.796C261.075 17.0526 270.29 11.3594 270.927 8.19928C271.28 6.40983 270.408 4.79197 268.461 3.65212C267.926 3.33753 267.266 3.09036 266.509 2.90038L252.334 3.33958C248.656 3.9953 244.852 4.95131 241.396 6.09525C225.667 11.3063 211.258 10.8446 194.58 10.3115C183.537 9.954 172.116 9.59039 159.008 10.8263C125.482 13.9905 112.821 14.1335 85.2126 13.7576C65.7397 13.4941 59.4748 14.6176 45.7418 17.0709C39.4238 18.2026 31.5616 19.6162 20.0715 21.3056C15.8615 21.9266 12.1438 22.3474 8.86328 22.6129L9.50469 25.579C12.5565 25.3768 15.9534 25.0234 19.7569 24.4616C31.2878 22.76 40.0203 19.8532 46.3567 18.7133C59.9078 16.2824 66.0869 15.1794 85.2738 15.4449C113.011 15.8187 125.47 17.359 159.147 14.1886C172.071 12.965 183.637 11.6474 194.588 11.9947C210.846 12.5136 226.186 13.0079 242.37 7.64774C253.129 4.07701 260.035 4.61221 262.911 6.30156C264.172 7.039 264.713 8.04403 264.478 9.21044C263.965 11.768 259.402 15.6553 248.235 18.1842C234.549 21.2831 231.187 25.5218 231.979 27.5196C233.489 31.3273 247.661 31.4356 261.823 29.2233C279.216 26.5125 297.392 26.5268 309.207 27.2214L308.943 25.5075C296.949 24.8089 278.908 24.8232 261.263 27.5768Z" fill="#315597"/>
<path d="M255.183 50.5024C247.486 51.0989 239.953 52.0345 233.299 52.8516C224.122 53.9833 212.699 55.3928 210.72 54.1957C210.985 52.9108 222.083 51.4686 226.258 50.9232L233.475 50.1592C244.173 49.1338 251.277 48.2636 252.613 45.6468C253.103 44.6826 253.306 43.1342 251.483 41.21C242.41 31.5886 189.355 31.7275 175.042 36.4279C165.585 39.5349 162.159 38.4768 149.407 34.5588C147.67 34.0154 145.217 32.8674 142.611 31.6601C138.636 29.8032 134.127 27.6972 129.727 26.5205C102.356 19.1932 75.9703 28.5531 56.7098 35.4004L55.8948 35.6904C45.0441 39.5349 34.1117 43.0423 25.0503 45.177C20.0805 46.3434 14.9513 47.5588 9.43405 49.095L8.71094 52.5186C9.89569 52.2551 11.1479 51.9426 12.4838 51.5585C18.3749 49.8957 23.8554 48.6006 29.148 47.3546C37.9744 45.2832 47.0929 43.1363 58.248 39.1795C76.8731 32.5691 104.535 26.1508 130.534 33.1084L147.63 38.0866C160.545 42.0659 165.875 43.7062 177.261 39.9578C192.029 35.1123 234.329 36.0684 240.665 42.7849C241.168 43.316 241.139 43.5448 241.135 43.5509C240.314 45.1729 230.826 46.3965 225.157 47.1401C214.515 48.523 205.327 49.716 205.709 54.353C205.805 55.4602 206.483 56.4448 207.631 57.1393C211.467 59.4721 220.559 58.3507 234.331 56.645C240.99 55.8279 248.438 54.9086 255.939 54.3203C265.547 53.5788 276.459 54.4531 287.03 55.2968C293.983 55.8524 300.767 56.3917 307.042 56.4693L308.337 52.6391C301.907 52.6351 294.723 52.0651 287.33 51.4768C276.504 50.6066 265.316 49.7098 255.183 50.5024Z" fill="#32428B"/>
<path d="M191.829 65.6259L172.897 66.8413C174.427 67.162 176.039 67.5093 177.767 67.8892C177.965 67.9362 194.417 66.5063 193.873 66.3163C193.181 66.0773 192.505 65.8547 191.829 65.6259Z" fill="#32428B"/>
<path d="M137.972 63.2973L137.947 63.3055C135.406 64.3575 132.767 65.4483 129.774 66.1612C118.621 68.8352 105.863 70.7799 100.805 70.9249C102.033 70.1712 104.229 69.0007 108.167 67.2766L109.327 66.7741C115.747 63.9796 118.787 62.4945 118.918 60.9277L118.797 60.2863C117.383 57.3509 108.684 58.0168 87.6768 59.6265L76.7586 60.4436C59.306 61.7162 38.9997 62.5905 32.5918 61.7305C21.4245 60.2291 12.929 60.8419 6.65999 62.2024L6.19629 64.3841L6.99907 64.7497C14.4671 63.2136 23.2813 62.329 29.8199 64.5454C37.0142 66.9865 57.5656 65.4892 77.447 64.0286C86.8536 63.3423 103.373 62.135 108.694 62.6191C108.065 62.9929 107.164 63.4648 105.62 64.143C96.5971 68.0876 94.6586 69.926 94.5381 71.4683L94.6035 71.7175L131.95 69.4623C135.138 68.6493 137.827 67.5442 140.425 66.4656C148.473 63.1359 152.328 62.4884 172.897 66.8394L191.829 65.626C158.527 54.4583 141.661 61.7673 137.972 63.2973Z" fill="#32428B"/>
<path d="M98.0127 72.3237C98.0168 72.3074 98.0229 72.2747 98.0556 72.2175C98.0086 72.1971 97.9555 72.1787 97.9229 72.1562C97.9698 72.191 98.0229 72.2747 98.0127 72.3237Z" fill="#315597"/>
<path d="M76.9006 61.9546C58.3797 63.3069 37.3993 64.841 31.0833 62.7083C23.8012 60.2366 14.4743 61.0353 6.57729 62.5878L6.19531 64.3834L6.31174 64.4386C14.0494 62.8289 23.3068 61.8851 30.2479 64.2322C37.1215 66.5691 57.5054 65.0718 77.2172 63.6358C90.6805 62.6532 109.048 61.307 111.011 62.7512C111.032 62.7145 111.036 62.694 111.038 62.69C111.036 62.7145 111.054 62.7655 111.073 62.7901C111.06 62.7778 111.032 62.7635 111.011 62.7512C110.895 62.9678 110.227 63.7951 106.252 65.5355C99.2087 68.6139 96.5267 70.383 95.9057 71.6372L98.839 71.4615C99.8726 70.6771 102.197 69.2983 107.441 67.0022C112.139 64.9513 118.191 62.4612 117.558 61.1313C116.306 58.5391 102.22 60.1059 76.9006 61.9546Z" fill="#315597"/>
<path d="M138.579 64.696C135.97 65.7746 133.282 66.8899 130.159 67.6376C126.063 68.6201 121.43 69.57 116.973 70.3667L129.268 69.6252C130.281 69.3944 130.888 69.2514 130.931 69.2432C134.25 68.4506 137.028 67.3005 139.729 66.1831C147.297 63.0414 153.359 61.5277 171.519 66.9288L188.88 65.8155C165.372 59.5565 146.49 61.4174 138.579 64.696Z" fill="#315597"/>
<path d="M111.012 62.7515C111.032 62.7658 111.061 62.776 111.073 62.7903C111.055 62.7678 111.034 62.7167 111.038 62.6902C111.036 62.6943 111.032 62.7167 111.012 62.7515Z" fill="#315597"/>
<path d="M207.342 59.1334C190.018 60.7411 183.998 59.2437 183.767 58.5165C183.757 58.49 183.62 55.3972 212.213 49.5713C228.114 46.3254 232.434 44.2132 231.864 42.6852C230.132 38.0236 190.465 40.1134 172.596 42.8078C157.819 45.0303 153.043 43.2756 146.435 40.8508C139.52 38.3117 130.915 35.1515 108.323 34.9268C81.0262 34.6674 71.201 38.2565 58.7651 42.7955C50.7639 45.7228 41.7006 49.0341 26.0761 52.0165C18.749 53.4158 12.909 54.2533 8.24552 54.7007L7.87988 56.437C13.1623 55.9651 19.4353 55.0459 26.7195 53.6548C42.5626 50.6356 51.7199 47.2814 59.815 44.3235C71.9996 39.8723 81.6186 36.3588 108.406 36.6121C130.48 36.8307 138.826 39.8907 145.532 42.3604C152.287 44.8383 157.617 46.7973 173.133 44.4603C195.974 41.0142 224.956 41.1695 227.027 43.3082C227.045 43.2837 227.053 43.2653 227.057 43.2551C227.045 43.2715 227.053 43.3246 227.076 43.343C227.064 43.3328 227.041 43.3205 227.027 43.3082C226.816 43.6351 225.127 45.1671 211.537 47.9453C190.71 52.184 176.029 57.1622 176.987 60.1548C178.217 63.9993 200.272 61.4969 207.719 60.8064C221.336 59.5297 241.209 59.2315 262.237 58.9087C277.589 58.6677 293.283 58.4246 306.602 57.775L307.184 56.0509C293.747 56.725 277.74 56.9763 262.081 57.2194C240.997 57.5462 221.07 57.8526 207.342 59.1334Z" fill="#315597"/>
<path d="M227.058 43.2544C227.054 43.2647 227.044 43.2851 227.027 43.3076C227.04 43.3198 227.064 43.3321 227.076 43.3423C227.054 43.3239 227.044 43.2728 227.058 43.2544Z" fill="#315597"/>
<path d="M254.604 52.0783C246.968 52.6686 239.443 53.594 232.802 54.4152C221.882 55.7675 211.563 57.0319 209.062 55.5203C208.754 55.3364 208.611 55.1199 208.582 54.8115C208.396 52.542 217.684 51.3306 225.157 50.3664C233.948 49.2143 248.958 48.6934 250.476 45.7233C251.007 44.6753 250.692 43.5314 249.54 42.3017C240.961 33.2114 188.748 33.3605 174.878 37.922C164.875 41.2047 160.988 40.0056 148.127 36.0468C143.641 34.6597 135.74 29.9675 128.517 28.033C101.321 20.7568 74.9971 30.3414 55.7633 37.1703C44.8308 41.0494 36.223 43.0697 27.1085 45.2167C21.7649 46.473 16.2435 47.7762 10.2585 49.4778C9.93163 49.5718 9.61707 49.6535 9.29842 49.7373L8.896 51.6411C9.61706 51.4634 10.3606 51.2734 11.1327 51.0528C17.0585 49.3737 22.5574 48.0683 27.8705 46.8243C36.6499 44.757 45.7235 42.6244 56.7928 38.6962C75.6631 32.0021 103.703 25.5103 130.162 32.5945C137.35 34.5229 142.902 36.2326 147.363 37.6033C160.197 41.552 164.996 43.035 175.844 39.4643C189.973 34.8313 233.781 35.009 241.03 42.6857C242.052 43.7683 241.766 44.3158 241.674 44.5058C240.589 46.6302 232.138 47.7313 224.672 48.6975C214.678 49.9967 206.043 51.1243 206.358 54.8298C206.419 55.6306 206.887 56.3129 207.704 56.8052C211.027 58.8234 220.356 57.6754 233.27 56.08C239.874 55.2609 247.365 54.3375 254.937 53.7492C264.687 52.9955 275.68 53.8738 286.319 54.7236C293.719 55.314 300.789 55.9207 307.211 55.9779L307.801 54.217C301.246 54.2272 293.95 53.6471 286.445 53.0486C275.703 52.1865 264.58 51.302 254.604 52.0783Z" fill="#315597"/>
</g>
<defs>
<filter id="filter0_d_442_2167" x="0" y="0" width="316" height="84.4333" filterUnits="userSpaceOnUse" color-interpolation-filters="sRGB">
<feFlood flood-opacity="0" result="BackgroundImageFix"/>
<feColorMatrix in="SourceAlpha" type="matrix" values="0 0 0 0 0 0 0 0 0 0 0 0 0 0 0 0 0 0 127 0" result="hardAlpha"/>
<feOffset dy="4"/>
<feGaussianBlur stdDeviation="2"/>
<feComposite in2="hardAlpha" operator="out"/>
<feColorMatrix type="matrix" values="0 0 0 0 0 0 0 0 0 0 0 0 0 0 0 0 0 0 0.25 0"/>
<feBlend mode="normal" in2="BackgroundImageFix" result="effect1_dropShadow_442_2167"/>
<feBlend mode="normal" in="SourceGraphic" in2="effect1_dropShadow_442_2167" result="shape"/>
</filter>
</defs>
</svg>
