<svg width="337" height="337" viewBox="0 0 337 337" fill="none" xmlns="http://www.w3.org/2000/svg">
<mask id="mask0_3_14342" style="mask-type:alpha" maskUnits="userSpaceOnUse" x="0" y="0" width="337" height="337">
<circle cx="168.5" cy="168.5" r="168.5" fill="#D9D9D9"/>
</mask>
<g mask="url(#mask0_3_14342)">
<ellipse cx="168.5" cy="168.193" rx="168.5" ry="168" fill="white"/>
<path d="M34.4738 231.061C30.978 232.712 29.4683 236.892 31.2757 240.31C39.663 256.169 50.7542 270.464 64.0663 282.543C79.1083 296.192 96.6913 306.744 115.811 313.597C134.932 320.451 155.214 323.471 175.502 322.486C193.456 321.614 211.103 317.62 227.655 310.701C231.222 309.21 232.712 305.022 231.061 301.526L209.259 255.364C207.609 251.868 203.444 250.4 199.83 251.773C191.041 255.113 181.767 257.054 172.347 257.511C160.592 258.082 148.84 256.332 137.761 252.361C126.683 248.39 116.495 242.276 107.78 234.367C100.795 228.03 94.8657 220.639 90.1994 212.477C88.2807 209.12 84.1321 207.608 80.6364 209.259L34.4738 231.061Z" fill="#9DDB63"/>
<path d="M34.4738 231.061C30.978 232.712 29.4683 236.892 31.2757 240.31C39.663 256.169 50.7542 270.464 64.0663 282.543C79.1083 296.192 96.6913 306.744 115.811 313.597C134.932 320.451 155.214 323.471 175.502 322.486C193.456 321.614 211.103 317.62 227.655 310.701C231.222 309.21 232.712 305.022 231.061 301.526L209.259 255.364C207.609 251.868 203.444 250.4 199.83 251.773C191.041 255.113 181.767 257.054 172.347 257.511C160.592 258.082 148.84 256.332 137.761 252.361C126.683 248.39 116.495 242.276 107.78 234.367C100.795 228.03 94.8657 220.639 90.1994 212.477C88.2807 209.12 84.1321 207.608 80.6364 209.259L34.4738 231.061Z" fill="#9DDB63"/>
<path d="M240.39 296.707C242.286 300.077 246.563 301.285 249.844 299.24C270.512 286.351 287.845 268.761 300.429 247.905C302.426 244.595 301.155 240.336 297.758 238.49L252.898 214.12C249.501 212.275 245.274 213.551 243.169 216.793C236.566 226.965 227.967 235.692 217.893 242.443C214.682 244.595 213.468 248.841 215.364 252.211L240.39 296.707Z" fill="#9DDB63"/>
<path d="M240.39 296.707C242.286 300.077 246.563 301.285 249.844 299.24C270.512 286.351 287.845 268.761 300.429 247.905C302.426 244.595 301.155 240.336 297.758 238.49L252.898 214.12C249.501 212.275 245.274 213.551 243.169 216.793C236.566 226.965 227.967 235.692 217.893 242.443C214.682 244.595 213.468 248.841 215.364 252.211L240.39 296.707Z" fill="#39CEF3"/>
<path d="M240.39 296.707C242.286 300.077 246.563 301.285 249.844 299.24C270.512 286.351 287.845 268.761 300.429 247.905C302.426 244.595 301.155 240.336 297.758 238.49L252.898 214.12C249.501 212.275 245.274 213.551 243.169 216.793C236.566 226.965 227.967 235.692 217.893 242.443C214.682 244.595 213.468 248.841 215.364 252.211L240.39 296.707Z" fill="#39CEF3"/>
<path d="M301.671 230.754C305.17 232.397 309.355 230.897 310.838 227.327C317.736 210.717 321.685 193.031 322.507 175.064C322.683 171.202 319.534 168.065 315.668 168.064L264.617 168.042C260.751 168.04 257.644 171.177 257.34 175.031C256.678 183.451 254.828 191.736 251.846 199.638C250.481 203.255 251.959 207.416 255.458 209.059L301.671 230.754Z" fill="#9DDB63"/>
<path d="M301.671 230.754C305.17 232.397 309.355 230.897 310.838 227.327C317.736 210.717 321.685 193.031 322.507 175.064C322.683 171.202 319.534 168.065 315.668 168.064L264.617 168.042C260.751 168.04 257.644 171.177 257.34 175.031C256.678 183.451 254.828 191.736 251.846 199.638C250.481 203.255 251.959 207.416 255.458 209.059L301.671 230.754Z" fill="#39CEF3"/>
<path d="M301.671 230.754C305.17 232.397 309.355 230.897 310.838 227.327C317.736 210.717 321.685 193.031 322.507 175.064C322.683 171.202 319.534 168.065 315.668 168.064L264.617 168.042C260.751 168.04 257.644 171.177 257.34 175.031C256.678 183.451 254.828 191.736 251.846 199.638C250.481 203.255 251.959 207.416 255.458 209.059L301.671 230.754Z" fill="#E561C4"/>
<path d="M315.419 159.428C319.279 159.204 322.242 155.891 321.843 152.046C321.221 146.044 320.248 140.084 318.929 134.196C318.084 130.423 314.221 128.224 310.49 129.239L261.229 142.64C257.498 143.654 255.325 147.498 256.046 151.296C256.332 152.802 256.579 154.315 256.787 155.833C257.312 159.663 260.594 162.616 264.454 162.392L315.419 159.428Z" fill="#9DDB63"/>
<path d="M315.419 159.428C319.279 159.204 322.242 155.891 321.843 152.046C321.221 146.044 320.248 140.084 318.929 134.196C318.084 130.423 314.221 128.224 310.49 129.239L261.229 142.64C257.498 143.654 255.325 147.498 256.046 151.296C256.332 152.802 256.579 154.315 256.787 155.833C257.312 159.663 260.594 162.616 264.454 162.392L315.419 159.428Z" fill="#39CEF3"/>
<path d="M315.419 159.428C319.279 159.204 322.242 155.891 321.843 152.046C321.221 146.044 320.248 140.084 318.929 134.196C318.084 130.423 314.221 128.224 310.49 129.239L261.229 142.64C257.498 143.654 255.325 147.498 256.046 151.296C256.332 152.802 256.579 154.315 256.787 155.833C257.312 159.663 260.594 162.616 264.454 162.392L315.419 159.428Z" fill="#E5D861"/>
<path d="M308.642 122.991C312.324 121.812 314.369 117.866 313.025 114.241C306.101 95.5622 295.633 78.3959 282.198 63.6878C279.591 60.8334 275.146 60.8441 272.412 63.5779L236.315 99.6786C233.581 102.412 233.605 106.828 236.117 109.766C242.332 117.036 247.344 125.254 250.961 134.108C252.423 137.687 256.337 139.73 260.019 138.551L308.642 122.991Z" fill="#9DDB63"/>
<path d="M308.642 122.991C312.324 121.812 314.369 117.866 313.025 114.241C306.101 95.5622 295.633 78.3959 282.198 63.6878C279.591 60.8334 275.146 60.8441 272.412 63.5779L236.315 99.6786C233.581 102.412 233.605 106.828 236.117 109.766C242.332 117.036 247.344 125.254 250.961 134.108C252.423 137.687 256.337 139.73 260.019 138.551L308.642 122.991Z" fill="#39CEF3"/>
<path d="M308.642 122.991C312.324 121.812 314.369 117.866 313.025 114.241C306.101 95.5622 295.633 78.3959 282.198 63.6878C279.591 60.8334 275.146 60.8441 272.412 63.5779L236.315 99.6786C233.581 102.412 233.605 106.828 236.117 109.766C242.332 117.036 247.344 125.254 250.961 134.108C252.423 137.687 256.337 139.73 260.019 138.551L308.642 122.991Z" fill="#8361E5"/>
<path d="M263.113 55.0427C265.603 52.0854 265.234 47.6555 262.167 45.3017C237.124 26.0814 206.746 14.9488 175.099 13.4947C141.117 11.9333 107.568 21.6186 79.6471 41.0511C51.7258 60.4835 30.9899 88.5789 20.6499 120.987C11.0204 151.168 10.9074 183.522 20.2318 213.682C21.3737 217.375 25.3994 219.261 29.0374 217.953L77.0795 200.683C80.7175 199.376 82.5781 195.371 81.5582 191.642C77.0018 174.983 77.344 157.308 82.6237 140.76C88.6148 121.982 100.629 105.704 116.807 94.4443C132.985 83.185 152.424 77.5732 172.113 78.4779C189.465 79.2751 206.158 85.094 220.197 95.1534C223.339 97.4051 227.741 97.0514 230.231 94.0941L263.113 55.0427Z" fill="#9DDB63"/>
<path d="M263.113 55.0427C265.603 52.0854 265.234 47.6555 262.167 45.3017C237.124 26.0814 206.746 14.9488 175.099 13.4947C141.117 11.9333 107.568 21.6186 79.6471 41.0511C51.7258 60.4835 30.9899 88.5789 20.6499 120.987C11.0204 151.168 10.9074 183.522 20.2318 213.682C21.3737 217.375 25.3994 219.261 29.0374 217.953L77.0795 200.683C80.7175 199.376 82.5781 195.371 81.5582 191.642C77.0018 174.983 77.344 157.308 82.6237 140.76C88.6148 121.982 100.629 105.704 116.807 94.4443C132.985 83.185 152.424 77.5732 172.113 78.4779C189.465 79.2751 206.158 85.094 220.197 95.1534C223.339 97.4051 227.741 97.0514 230.231 94.0941L263.113 55.0427Z" fill="#FF723E"/>
<path d="M69.8535 64.9512L67.9102 73.6914V74.6582H69.8535C70.8236 74.6582 71.4714 71.7448 71.7969 65.918L72.2852 66.4062H75.6836V66.8945L74.707 74.6582H77.1387V75.1465C77.1387 75.6738 76.0059 76.3216 73.7402 77.0898V80H68.8867V79.5117L69.3652 76.1133H68.8867L66.9434 76.6016H66.4551C65.485 76.276 65 75.306 65 73.6914V66.4062C65 65.6901 66.6178 65.2051 69.8535 64.9512ZM80.0293 65H87.5293L88.5254 65.9961V69.0039C85.5241 69.2643 84.0234 69.7624 84.0234 70.498C87.3568 71.8132 89.0234 73.6458 89.0234 75.9961C89.0234 78.6654 86.8587 80 82.5293 80C79.86 79.5768 78.5254 78.2422 78.5254 75.9961H79.0234L82.5293 76.5039C84.196 76.0742 85.0293 75.5729 85.0293 75C85.0293 72.6693 83.5286 71.5039 80.5273 71.5039C81.9661 69.8568 83.9648 68.6882 86.5234 67.998L85.5273 67.002L78.0273 69.0039V68.4961C78.8216 66.1654 79.4889 65 80.0293 65ZM92.207 77.3047L92.6562 76.8555H93.1055L93.5547 80H89.9609V77.3047H92.207ZM97.959 65H100.859C104.089 65 105.703 67.9036 105.703 73.7109C105.059 77.9036 103.122 80 99.8926 80H98.9258C96.0221 80 94.5703 78.2259 94.5703 74.6777V69.834C94.5703 66.6113 95.6999 65 97.959 65ZM97.959 65.9668L97.4707 67.9004C97.8939 75.3223 98.8639 79.0332 100.381 79.0332H101.348L101.826 76.6113V71.2891C101.826 67.7409 101.344 65.9668 100.381 65.9668H97.959ZM113.057 65.0781C116.585 65.0781 118.35 67.002 118.35 70.8496V73.7402C118.35 77.9134 116.423 80 112.568 80L111.611 78.5547V78.0762L114.502 75.1855V74.707L111.611 75.6641H110.166L106.797 74.707V73.2617C106.797 67.806 108.402 65.0781 111.611 65.0781H113.057ZM110.645 68.9258V74.2285H111.133C112.194 74.0072 113.799 72.5618 115.947 69.8926C115.107 67.8288 114.303 66.7057 113.535 66.5234H113.057L110.645 68.9258ZM130.85 65L133.154 65.5762C130.765 68.9746 128.268 73.7826 125.664 80L122.773 79.4238V78.8477C125.964 74.1211 128.464 69.5052 130.273 65H130.85ZM122.773 66.1621H123.35L125.088 67.8906V70.1953L123.35 71.9238H120.469L119.316 69.6191C119.316 67.3145 120.469 66.1621 122.773 66.1621ZM121.621 68.4668V70.1953H123.35V68.4668H121.621ZM132.578 74.2285C134.336 74.9772 135.299 75.7487 135.469 76.543V78.2715L133.74 80H132.002L129.697 77.6953C129.951 75.7682 130.911 74.8047 132.578 74.8047V74.2285ZM131.426 75.9668V77.1191L132.578 78.2715H133.154L133.74 76.543L133.154 75.9668H131.426Z" fill="white"/>
<path d="M255.449 96.0742L250.469 110H246.992L246.494 109.502H245.996L252.959 97.5684H251.963L245 100.049V95.0781H252.959C254.619 95.1628 255.449 95.4948 255.449 96.0742ZM258.73 107.305L259.18 106.855H259.629L260.078 110H256.484V107.305H258.73ZM261.592 95.0781L270.049 95.5762V97.5684L269.551 100.049L264.082 98.0664H263.086V100.547C263.086 101.211 264.743 101.543 268.057 101.543C271.37 102.624 273.027 103.454 273.027 104.033V105.527C273.027 108.509 269.548 110 262.588 110L261.094 107.012L264.58 107.51H265.566L268.057 107.012V105.527C267.725 104.531 266.729 104.033 265.068 104.033H261.592V95.0781ZM277.354 95H280.254C283.483 95 285.098 97.9036 285.098 103.711C284.453 107.904 282.516 110 279.287 110H278.32C275.417 110 273.965 108.226 273.965 104.678V99.834C273.965 96.6113 275.094 95 277.354 95ZM277.354 95.9668L276.865 97.9004C277.288 105.322 278.258 109.033 279.775 109.033H280.742L281.221 106.611V101.289C281.221 97.7409 280.739 95.9668 279.775 95.9668H277.354ZM297.725 95L300.029 95.5762C297.64 98.9746 295.143 103.783 292.539 110L289.648 109.424V108.848C292.839 104.121 295.339 99.5052 297.148 95H297.725ZM289.648 96.1621H290.225L291.963 97.8906V100.195L290.225 101.924H287.344L286.191 99.6191C286.191 97.3145 287.344 96.1621 289.648 96.1621ZM288.496 98.4668V100.195H290.225V98.4668H288.496ZM299.453 104.229C301.211 104.977 302.174 105.749 302.344 106.543V108.271L300.615 110H298.877L296.572 107.695C296.826 105.768 297.786 104.805 299.453 104.805V104.229ZM298.301 105.967V107.119L299.453 108.271H300.029L300.615 106.543L300.029 105.967H298.301Z" fill="white"/>
<path d="M277.469 185.078C280.685 185.078 282.84 186.403 283.934 189.053L281.951 192.041C283.937 192.816 284.93 193.48 284.93 194.033C284.018 198.011 282.195 200 279.461 200H277.967C274.321 200 272.498 198.509 272.498 195.527C273.182 194.199 274.012 193.535 274.988 193.535V192.539L272 191.543V190.049C272 187.399 273.823 185.742 277.469 185.078ZM276.971 187.568V188.066L277.469 191.543H280.457L281.453 190.547V189.053L280.955 186.572H277.967L276.971 187.568ZM274.988 194.531V197.012L275.975 198.008H279.461L279.959 194.531V194.033L277.469 193.535H275.975L274.988 194.531ZM297.439 185L299.744 185.576C297.355 188.975 294.858 193.783 292.254 200L289.363 199.424V198.848C292.553 194.121 295.053 189.505 296.863 185H297.439ZM289.363 186.162H289.939L291.678 187.891V190.195L289.939 191.924H287.059L285.906 189.619C285.906 187.314 287.059 186.162 289.363 186.162ZM288.211 188.467V190.195H289.939V188.467H288.211ZM299.168 194.229C300.926 194.977 301.889 195.749 302.059 196.543V198.271L300.33 200H298.592L296.287 197.695C296.541 195.768 297.501 194.805 299.168 194.805V194.229ZM298.016 195.967V197.119L299.168 198.271H299.744L300.33 196.543L299.744 195.967H298.016Z" fill="white"/>
<path d="M241.176 245.932V246.4L240.238 261H236L236.938 252.055V249.701L236 248.285V246.869L241.176 245.932ZM245.619 246H248.52C251.749 246 253.363 248.904 253.363 254.711C252.719 258.904 250.782 261 247.553 261H246.586C243.682 261 242.23 259.226 242.23 255.678V250.834C242.23 247.611 243.36 246 245.619 246ZM245.619 246.967L245.131 248.9C245.554 256.322 246.524 260.033 248.041 260.033H249.008L249.486 257.611V252.289C249.486 248.741 249.005 246.967 248.041 246.967H245.619ZM265.99 246L268.295 246.576C265.906 249.975 263.409 254.783 260.805 261L257.914 260.424V259.848C261.104 255.121 263.604 250.505 265.414 246H265.99ZM257.914 247.162H258.49L260.229 248.891V251.195L258.49 252.924H255.609L254.457 250.619C254.457 248.314 255.609 247.162 257.914 247.162ZM256.762 249.467V251.195H258.49V249.467H256.762ZM267.719 255.229C269.477 255.977 270.44 256.749 270.609 257.543V259.271L268.881 261H267.143L264.838 258.695C265.092 256.768 266.052 255.805 267.719 255.805V255.229ZM266.566 256.967V258.119L267.719 259.271H268.295L268.881 257.543L268.295 256.967H266.566Z" fill="white"/>
<path d="M98.1758 271H99.2109C102.655 271 104.377 272.38 104.377 275.141L97.6582 281.342L98.1758 281.859H100.246C103.176 281.859 105.415 281.514 106.965 280.824V281.342C106.503 283.757 105.985 284.965 105.412 284.965L94.0352 286V281.859L100.764 275.141L100.246 274.623H99.2109L93 275.141C93 272.38 94.7253 271 98.1758 271ZM114.885 271.078C113.225 272.986 112.395 274.643 112.395 276.049V276.547L112.893 276.049H116.877C118.863 276.257 119.855 276.755 119.855 277.543V280.033C119.855 282.631 119.029 284.62 117.375 286H112.395C109.413 285.557 107.922 283.734 107.922 280.531V277.543C107.922 273.233 110.243 271.078 114.885 271.078ZM110.412 279.037V283.012C110.62 284.008 111.945 284.506 114.387 284.506L115.881 278.539L113.391 278.041H111.408L110.412 279.037ZM123.117 283.305L123.566 282.855H124.016L124.465 286H120.871V283.305H123.117ZM131.74 271.078C135.269 271.078 137.033 273.002 137.033 276.85V279.74C137.033 283.913 135.106 286 131.252 286L130.295 284.555V284.076L133.186 281.186V280.707L130.295 281.664H128.85L125.48 280.707V279.262C125.48 273.806 127.085 271.078 130.295 271.078H131.74ZM129.328 274.926V280.229H129.816C130.878 280.007 132.482 278.562 134.631 275.893C133.791 273.829 132.987 272.706 132.219 272.523H131.74L129.328 274.926ZM140.002 271H147.502L148.498 271.996V275.004C145.497 275.264 143.996 275.762 143.996 276.498C147.329 277.813 148.996 279.646 148.996 281.996C148.996 284.665 146.831 286 142.502 286C139.833 285.577 138.498 284.242 138.498 281.996H138.996L142.502 282.504C144.169 282.074 145.002 281.573 145.002 281C145.002 278.669 143.501 277.504 140.5 277.504C141.939 275.857 143.938 274.688 146.496 273.998L145.5 273.002L138 275.004V274.496C138.794 272.165 139.462 271 140.002 271ZM161.467 271L163.771 271.576C161.382 274.975 158.885 279.783 156.281 286L153.391 285.424V284.848C156.581 280.121 159.081 275.505 160.891 271H161.467ZM153.391 272.162H153.967L155.705 273.891V276.195L153.967 277.924H151.086L149.934 275.619C149.934 273.314 151.086 272.162 153.391 272.162ZM152.238 274.467V276.195H153.967V274.467H152.238ZM163.195 280.229C164.953 280.977 165.917 281.749 166.086 282.543V284.271L164.357 286H162.619L160.314 283.695C160.568 281.768 161.529 280.805 163.195 280.805V280.229ZM162.043 281.967V283.119L163.195 284.271H163.771L164.357 282.543L163.771 281.967H162.043Z" fill="white"/>
<path d="M265.611 142.704L263.765 151.007V151.925H265.611C266.532 151.925 267.148 149.158 267.457 143.622L267.921 144.086H271.149V144.55L270.222 151.925H272.532V152.389C272.532 152.89 271.456 153.506 269.303 154.235V157H264.692V156.536L265.147 153.308H264.692L262.846 153.771H262.382C261.461 153.462 261 152.541 261 151.007V144.086C261 143.406 262.537 142.945 265.611 142.704ZM275.51 154.439L275.937 154.013H276.363L276.79 157H273.376V154.439H275.51ZM282.366 142.704L280.52 151.007V151.925H282.366C283.287 151.925 283.903 149.158 284.212 143.622L284.676 144.086H287.904V144.55L286.977 151.925H289.287V152.389C289.287 152.89 288.21 153.506 286.058 154.235V157H281.447V156.536L281.902 153.308H281.447L279.601 153.771H279.137C278.216 153.462 277.755 152.541 277.755 151.007V144.086C277.755 143.406 279.292 142.945 282.366 142.704ZM300.058 143.771L295.326 157H292.023L291.55 156.527H291.077L297.692 145.19H296.746L290.131 147.546V142.824H297.692C299.269 142.905 300.058 143.22 300.058 143.771ZM311.998 142.75L314.187 143.297C311.917 146.526 309.545 151.093 307.071 157L304.325 156.453V155.905C307.356 151.415 309.731 147.03 311.45 142.75H311.998ZM304.325 143.854H304.873L306.524 145.496V147.686L304.873 149.328H302.136L301.041 147.138C301.041 144.949 302.136 143.854 304.325 143.854ZM303.23 146.043V147.686H304.873V146.043H303.23ZM313.64 151.517C315.31 152.228 316.225 152.961 316.386 153.716V155.358L314.744 157H313.092L310.903 154.811C311.144 152.98 312.056 152.064 313.64 152.064V151.517ZM312.545 153.168V154.263L313.64 155.358H314.187L314.744 153.716L314.187 153.168H312.545Z" fill="white"/>
</g>
</svg>
