<svg width="37" height="41" viewBox="0 0 37 41" fill="none" xmlns="http://www.w3.org/2000/svg">
<g clip-path="url(#clip0_56_56)">
<path fill-rule="evenodd" clip-rule="evenodd" d="M13.445 2.40433C10.9816 3.64425 8.96613 4.69346 8.96656 4.73614C8.96766 4.84628 14.8789 7.73886 15.0887 7.7318C15.1842 7.72872 15.8765 7.42078 16.6272 7.04758L17.9923 6.36916L19.4832 7.10961L20.974 7.8502L23.4155 6.79019C27.0943 5.19293 27.4764 5.0179 27.4165 4.9591C27.337 4.88108 26.0175 4.19616 22.4376 2.37511C20.7074 1.49498 19.0282 0.632039 18.7058 0.457423C18.3835 0.282806 18.0757 0.142339 18.022 0.145058C17.9682 0.147777 15.9085 1.16446 13.445 2.40433ZM2.64034 7.81038L0.0759156 9.09025V14.7074C0.0759156 17.7968 0.109589 20.3244 0.150894 20.3244C0.192056 20.3244 1.45376 19.796 2.95461 19.1501L5.68345 17.9758V12.0549L7.01694 12.7569C8.0445 13.2973 9.07269 13.8367 10.1015 14.3749L11.8525 15.2909L12.6317 14.9505C13.1203 14.7367 13.608 14.5207 14.0947 14.3027C14.4708 14.1335 15.394 13.7318 16.1462 13.4098C16.8984 13.0876 17.5947 12.7637 17.6935 12.6899C17.8246 12.5918 16.2253 11.7378 11.778 9.53119C8.42564 7.86785 5.57527 6.51221 5.44382 6.51871C5.31237 6.52521 4.05081 7.10638 2.64034 7.81038ZM27.8786 8.1698C26.1321 8.93163 24.7019 9.58539 24.7003 9.62267C24.6987 9.65991 25.6507 10.2068 26.8158 10.8378C27.9808 11.4689 28.934 12.019 28.934 12.0605C28.934 12.1018 27.9031 12.5845 26.6432 13.1332C25.3831 13.6819 22.1982 15.0716 19.5654 16.2216L10.7439 20.0744C8.5248 21.0436 6.52457 21.9173 6.29892 22.016C1.76636 23.9986 0.520538 24.5487 0.349453 24.6431C0.177413 24.7382 0.138445 25.2905 0.107824 28.0627L0.0712891 31.369L2.36452 32.498L4.6577 33.6269L7.83755 32.2403C9.58651 31.4778 11.0174 30.8139 11.0174 30.765C11.0174 30.7162 10.6942 30.5127 10.2994 30.3126C9.90436 30.1125 9.08895 29.6696 8.48717 29.3281C7.88543 28.9865 7.28542 28.6732 7.15368 28.6316C7.02199 28.5902 6.91615 28.5177 6.9183 28.4704C6.92049 28.4233 8.32076 27.7806 10.0298 27.0422C13.3493 25.6082 15.8896 24.5029 21.3434 22.1199C23.7821 21.0545 26.2212 19.9898 28.6605 18.9258C30.8044 17.9908 33.297 16.8988 34.1996 16.4992L35.8409 15.7725L35.8774 12.4286L35.914 9.08472L33.5881 7.93121C32.3088 7.29685 31.2154 6.77937 31.158 6.78125C31.1007 6.78301 29.625 7.40778 27.8786 8.1698ZM35.2177 20.2336C34.875 20.3953 34.198 20.6982 33.7133 20.9065C33.2286 21.1149 32.3088 21.5159 31.6694 21.7978L30.5069 22.3101L30.4804 25.2458C30.4657 26.8604 30.4042 28.1743 30.3436 28.1658C30.206 28.146 28.0272 27.0663 25.837 25.9323C24.2562 25.114 24.1569 25.0815 23.7854 25.2592C23.5707 25.362 22.2871 25.9182 20.9331 26.4955C19.5791 27.0726 18.4271 27.5825 18.3729 27.6286C18.3189 27.6747 21.044 29.1018 24.4289 30.8002L30.5831 33.888L33.2121 32.574C34.6578 31.8514 35.8872 31.1922 35.9438 31.1093C36.0713 30.9229 36.0604 19.9139 35.9328 19.9288C35.8823 19.9346 35.5605 20.0718 35.2177 20.2336ZM20.6596 33.1554C20.2036 33.3448 19.7477 33.5345 19.2919 33.7245C17.9156 34.2998 18.1853 34.3189 16.5479 33.5313C15.4573 33.0068 14.9872 32.8449 14.7832 32.9235C14.6301 32.9824 13.3129 33.555 11.8558 34.1959C10.3988 34.8368 9.15611 35.3612 9.09429 35.3612C8.48297 35.3612 9.49928 35.9479 13.421 37.8593L18.0202 40.1007L19.9554 39.1776C21.0197 38.6699 23.1664 37.6532 24.726 36.9184C26.2854 36.1833 27.542 35.5629 27.5185 35.5395C27.4948 35.5161 26.1881 34.8678 24.6146 34.0987L21.7537 32.7006L20.6596 33.1554Z" fill="white"/>
</g>
<defs>
<clipPath id="clip0_56_56">
<rect width="36" height="40" fill="white" transform="translate(0.0712891 0.121582)"/>
</clipPath>
</defs>
</svg>
