<svg width="41" height="42" viewBox="0 0 41 42" fill="none" xmlns="http://www.w3.org/2000/svg">
<path fill-rule="evenodd" clip-rule="evenodd" d="M40.5696 20.9997C40.5696 32.1551 31.5264 41.1983 20.371 41.1983C9.2156 41.1983 0.172363 32.1551 0.172363 20.9997C0.172363 9.84426 9.2156 0.801025 20.371 0.801025C31.5264 0.801025 40.5696 9.84426 40.5696 20.9997ZM21.0948 15.7126C19.1302 16.5297 15.2037 18.221 9.31543 20.7864C8.35926 21.1667 7.85838 21.5387 7.81278 21.9024C7.73572 22.5171 8.5055 22.7591 9.55374 23.0887C9.69633 23.1336 9.84407 23.18 9.99553 23.2293C11.0268 23.5645 12.4141 23.9567 13.1353 23.9723C13.7895 23.9864 14.5197 23.7167 15.3258 23.1632C20.8274 19.4494 23.6674 17.5723 23.8457 17.5318C23.9715 17.5033 24.1458 17.4674 24.2639 17.5724C24.382 17.6773 24.3704 17.8761 24.3579 17.9295C24.2816 18.2546 21.26 21.0638 19.6962 22.5176C19.2088 22.9708 18.863 23.2922 18.7923 23.3657C18.6339 23.5301 18.4725 23.6857 18.3174 23.8352C17.3593 24.7588 16.6408 25.4515 18.3572 26.5825C19.182 27.1261 19.8421 27.5756 20.5005 28.024C21.2196 28.5137 21.9369 29.0021 22.8649 29.6105C23.1013 29.7654 23.3271 29.9264 23.5471 30.0832C24.3839 30.6798 25.1358 31.2158 26.0646 31.1303C26.6044 31.0807 27.1619 30.5732 27.445 29.0595C28.1142 25.4823 29.4295 17.7316 29.7334 14.5377C29.7601 14.2579 29.7266 13.8998 29.6997 13.7426C29.6728 13.5854 29.6165 13.3614 29.4122 13.1956C29.1702 12.9992 28.7966 12.9578 28.6295 12.9607C27.8698 12.9741 26.7042 13.3794 21.0948 15.7126Z" fill="white"/>
</svg>
