<svg width="591" height="217" viewBox="0 0 591 217" fill="none" xmlns="http://www.w3.org/2000/svg">
<g filter="url(#filter0_d_10_7223)">
<path d="M10.9362 42.3547L17.142 41.2539L11.5547 41.1498L10.9362 42.3547Z" fill="#32428B"/>
<path d="M126.772 203.586L113.335 202.624C109.317 204.551 105.195 207.154 100.934 210.197L122.586 211.762L151.548 209.377C147.092 206.678 142.796 204.349 138.839 202.593L126.772 203.586Z" fill="#32428B"/>
<path d="M359.683 191.659L408.635 187.388L438.005 188.628C426.519 186.241 414.383 184.594 401.784 184.178C385.436 183.638 371.533 186.695 359.683 191.659Z" fill="#32428B"/>
<path d="M29.7811 196.596L4.67594 181.607L15.5671 112.517L9.11542 73.6029L10.8791 42.4557L6.70505 50.5338L4.93382 81.774L11.3894 120.683L0.49435 189.783L25.5957 204.777L100.933 210.198C105.194 207.156 109.32 204.552 113.334 202.62L29.7811 196.596Z" fill="#32428B"/>
<path d="M574.571 184.818L576.092 177.387L573.898 186.039L412.815 179.2L245.56 193.806L138.841 202.592C142.798 204.353 147.09 206.676 151.546 209.371L241.382 201.982L359.682 191.657C371.535 186.699 385.438 183.641 401.783 184.182C414.381 184.593 426.518 186.245 438.003 188.632L569.728 194.199L574.571 184.818Z" fill="#32428B"/>
<path d="M124.798 199.141C121.069 199.481 117.256 200.731 113.335 202.621L126.772 203.588L138.844 202.59C133.336 200.146 128.472 198.79 124.798 199.141Z" fill="#32428B"/>
<path d="M412.817 179.2L573.896 186.039L576.09 177.387L585.007 133.718L572.046 26.7049L532.797 31.4974L440.59 35.551L357.329 30.4965L312.575 45.891L239.769 48.3339L113.897 42.9523L17.1444 41.2541L10.9385 42.355L10.8801 42.4584L9.11252 73.6005L15.5681 112.514L4.67695 181.609L29.7822 196.593L113.335 202.618C117.256 200.728 121.072 199.483 124.797 199.143C128.472 198.792 133.335 200.143 138.843 202.592L245.562 193.801L412.817 179.2Z" fill="#32428B"/>
<path d="M197.441 34.6101L243.956 40.1587L263.441 38.3102L244.613 38.9433L197.441 34.6101Z" fill="#315597"/>
<path d="M537.64 22.1124L445.441 26.1712L364.023 24.5257L363.925 24.5569L444.776 27.3866L536.978 23.3382L576.236 18.5405L589.189 125.553L574.217 184.8L574.573 184.82L589.854 124.343L576.897 17.325L537.64 22.1124Z" fill="#315597"/>
<path d="M11.4922 42.2522L18.7844 40.9677L11.5558 41.1468L11.4922 42.2522Z" fill="#315597"/>
<path d="M124.798 199.141C121.843 199.412 118.83 200.262 115.757 201.536L127.442 202.373L136.558 201.631C131.994 199.799 127.96 198.833 124.798 199.141Z" fill="#315597"/>
<path d="M413.486 177.996L574.213 184.799L589.185 125.553L576.232 18.5397L536.978 23.3374L444.772 27.3858L363.921 24.5561L317.429 36.5104L263.444 38.3099L243.954 40.1584L197.44 34.6098L105.083 26.1292L66.9045 39.6833L18.7858 40.9665L11.4895 42.251L9.77409 72.4014L16.2414 111.305L5.34635 180.415L30.4555 195.399L115.756 201.533C118.83 200.259 121.842 199.41 124.797 199.144C127.96 198.831 131.993 199.801 136.557 201.628L246.231 192.591L413.486 177.996Z" fill="#2A4474"/>
<path d="M385.545 166.653C358.627 170.049 347.889 168.069 344.293 166.952C347.234 164.305 357.867 157.558 395.972 147.196C426.892 138.79 435.046 133.443 435.334 128.557C435.368 127.958 435.292 127.374 435.138 126.796C430.56 110.71 344.312 120.429 318.751 125.578C291.299 131.12 282.452 126.867 270.23 120.965C256.763 114.487 239.992 106.402 196.189 105.949C143.37 105.411 124.361 114.634 100.308 126.333C85.1216 133.696 67.9091 142.072 38.2378 149.628C26.4263 152.639 16.7387 154.472 8.78891 155.521L7.22749 165.42C16.5296 164.161 27.5883 161.85 40.9002 158.468C71.4349 150.682 89.0653 142.119 104.638 134.543C127.657 123.353 145.842 114.526 196.542 115.059C238.214 115.492 253.924 123.047 266.553 129.109C279.929 135.576 290.484 140.666 320.987 134.497C361.276 126.355 407.073 126.617 418.95 129.416C415.827 131.134 408.805 134.158 393.161 138.413C377.451 142.674 326.119 157.642 325.348 170.612L325.485 172.259C327.773 181.539 349.228 180.662 383.095 176.209L387.109 175.687C413.077 172.427 451.024 171.547 491.202 170.615C521.568 169.926 552.583 169.21 578.617 167.37L580.978 158.041C554.514 160.048 522.174 160.783 490.588 161.522C450.132 162.439 411.931 163.356 385.545 166.653Z" fill="#32428B"/>
<path d="M492.055 83.1739C464.283 88.9796 447.062 83.9067 446.136 81.0892C446.285 79.9216 450.936 74.626 470.059 68.8689C494.156 61.5597 512.449 46.3897 513.817 37.3428C514.528 32.5017 512.968 27.9506 509.503 24.5407L459.205 26.7438C457.205 27.5031 455.236 28.3139 453.342 29.1401C423.838 42.1549 396.556 41.0542 364.958 39.8047C343.666 38.9671 321.699 38.0848 296.415 41.3171C232.46 49.4644 208.298 49.8842 155.58 49.0671C117.974 48.4893 105.88 51.3668 79.3845 57.732C67.3107 60.6197 52.2275 63.9234 30.3877 68.5462C22.3691 70.2303 15.366 71.4624 9.18295 72.3463L9.11197 73.6014L10.9989 84.9586C16.909 84.3544 23.5766 83.3607 31.1108 81.869C44.9209 79.1317 56.8394 75.1856 66.4257 71.9739L82.0836 67.1762C107.771 61.03 119.493 58.2361 155.891 58.781L188.513 59.6301C221.604 60.7207 247.751 61.5714 297.675 55.2325L307.071 54.0044C327.602 51.3372 346.976 48.7918 365.022 49.5192C396.472 50.7691 426.151 51.9565 457.643 38.0533C477.127 29.4598 489.477 30.5946 494.123 34.1873C495.698 35.402 496.336 36.9394 496.04 38.8769C495.356 43.4752 488.433 53.0066 466.809 59.5501C437.224 68.4955 432.314 80.7123 434.049 86.5335C438.262 100.482 474.027 96.9695 494.496 92.6963C528.793 85.5358 562.998 84.7643 584.408 86.1439L583.773 80.795C562.011 77.836 527.9 75.6944 492.055 83.1739Z" fill="#32428B"/>
<path d="M475.391 26.0356L502.523 24.854C496.156 22.7583 486.055 23.5079 475.391 26.0356Z" fill="#315597"/>
<path d="M492.643 87.268C465.106 93.0214 445.092 88.684 443.435 83.1932C442.623 80.5356 447.138 74.2849 469.062 67.6579C492.213 60.6611 509.813 46.2211 511.012 38.2283C511.676 33.7023 509.996 29.6163 506.262 26.7443C505.236 25.9516 503.971 25.33 502.52 24.8535L475.392 26.0352C468.355 27.7115 461.082 30.1476 454.474 33.0571C424.403 46.311 396.82 45.2163 364.893 43.9521C343.754 43.1038 321.892 42.2419 296.811 45.4324C232.661 53.6008 208.429 54.0259 155.582 53.2144C118.308 52.646 106.324 55.518 80.0549 61.7897C67.9694 64.6826 52.9301 68.296 30.9487 72.6249C22.8947 74.2161 15.7817 75.2987 9.50431 75.9865L10.7517 83.4823C16.5916 82.9557 23.0912 82.0451 30.3675 80.6057C52.427 76.2457 69.1221 68.8526 81.2427 65.9389C107.164 59.725 118.984 56.9051 155.71 57.48C208.804 58.2858 232.66 62.1172 297.1 53.9326C321.829 50.774 343.957 47.3847 364.92 48.2077C396.041 49.4378 425.407 50.6105 456.349 36.9773C476.918 27.8956 490.141 29.214 495.657 33.4706C498.074 35.3287 499.117 37.867 498.675 40.8171C497.711 47.2858 489.002 57.1369 467.644 63.5868C441.469 71.4902 435.062 82.2236 436.592 87.2706C439.506 96.8898 466.633 97.0923 493.725 91.4279C526.999 84.4871 561.788 84.4319 584.407 86.1284L583.892 81.7967C560.929 80.0907 526.397 80.2175 492.643 87.268Z" fill="#315597"/>
<path d="M481.158 145.26C466.429 146.807 452.016 149.21 439.288 151.309C421.728 154.216 399.874 157.837 396.078 154.821C396.577 151.571 417.81 147.869 425.798 146.469L439.606 144.501C460.075 141.855 473.667 139.619 476.207 132.997C477.139 130.556 477.516 126.641 474.015 121.785C456.584 97.5052 355.036 98.1231 327.671 110.079C309.59 117.982 303.026 115.324 278.591 105.482C275.264 104.117 270.561 101.227 265.564 98.1876C257.943 93.5129 249.3 88.2109 240.871 85.2582C188.431 66.8704 137.99 90.6671 101.17 108.076L99.6122 108.813C78.8689 118.587 57.9669 127.51 40.6373 132.952C31.1325 135.926 21.3231 139.025 10.7729 142.937L9.41158 151.596C11.6775 150.924 14.0721 150.127 16.6266 149.15C27.8914 144.916 38.3728 141.614 48.4948 138.437C65.3752 133.156 82.8143 127.682 104.139 117.622C139.745 100.816 192.649 84.45 242.459 101.91L275.213 114.41C299.961 124.406 310.173 128.526 331.941 118.992C360.176 106.667 441.147 108.872 453.319 125.821C454.285 127.161 454.232 127.74 454.224 127.755C452.663 131.86 434.51 135.001 423.665 136.91C403.304 140.46 385.726 143.522 386.488 155.244C386.679 158.042 387.984 160.528 390.186 162.279C397.544 168.157 414.939 165.276 441.287 160.895C454.028 158.795 468.277 156.434 482.63 154.909C501.016 152.986 521.908 155.141 542.147 157.221C555.46 158.591 568.448 159.92 580.459 160.085L582.912 150.395C570.604 150.417 556.85 149.012 542.696 147.562C521.969 145.416 500.549 143.205 481.158 145.26Z" fill="#32428B"/>
<path d="M359.994 183.814L323.767 186.982C326.697 187.785 329.784 188.655 333.094 189.607C333.474 189.725 364.954 186.027 363.913 185.55C362.586 184.949 361.29 184.389 359.994 183.814Z" fill="#32428B"/>
<path d="M256.894 178.198L256.847 178.218C251.991 180.891 246.946 183.662 241.223 185.479C219.894 192.296 195.486 197.277 185.806 197.669C188.151 195.757 192.346 192.787 199.873 188.408L202.09 187.132C214.36 180.034 220.168 176.264 220.408 172.302L220.173 170.681C217.448 163.267 200.801 164.994 160.603 169.17L139.711 171.29C106.314 174.596 67.4523 176.908 55.1816 174.766C33.7968 171.026 17.54 172.618 5.5499 176.089L4.67684 181.607L6.21584 182.528C20.4998 178.606 37.3647 176.326 49.8947 181.897C63.6812 188.032 103.008 184.143 141.052 180.351C159.052 178.568 190.662 175.433 200.851 176.63C199.649 177.578 197.928 178.776 194.977 180.498C177.733 190.516 174.035 195.174 173.815 199.074L173.941 199.704L245.409 193.815C251.507 191.743 256.645 188.935 261.611 186.195C276.993 177.737 284.367 176.08 323.767 186.977L359.995 183.815C296.18 155.747 263.945 174.311 256.894 178.198Z" fill="#32428B"/>
<path d="M180.47 201.22C180.478 201.178 180.489 201.096 180.551 200.95C180.461 200.899 180.36 200.853 180.297 200.796C180.387 200.884 180.489 201.096 180.47 201.22Z" fill="#315597"/>
<path d="M139.992 175.11C104.551 178.622 64.4039 182.606 52.3006 177.246C38.3458 171.033 20.499 173.1 5.39408 177.064L4.67487 181.606L4.89809 181.745C19.6977 177.636 37.4106 175.204 50.7117 181.103C63.8836 186.977 102.889 183.088 140.609 179.359C166.372 176.807 201.52 173.311 205.287 176.953C205.326 176.86 205.334 176.808 205.338 176.798C205.334 176.86 205.369 176.989 205.405 177.05C205.381 177.02 205.326 176.984 205.287 176.953C205.066 177.501 203.793 179.596 196.196 184.016C182.735 191.834 177.614 196.32 176.433 199.494L182.047 199.036C184.02 197.047 188.46 193.549 198.481 187.718C207.46 182.509 219.028 176.183 217.807 172.824C215.393 166.277 188.442 170.309 139.992 175.11Z" fill="#315597"/>
<path d="M258.065 181.731C253.08 184.471 247.942 187.304 241.969 189.21C234.136 191.715 225.275 194.14 216.749 196.176L240.277 194.24C242.215 193.651 243.375 193.286 243.457 193.266C249.805 191.245 255.115 188.323 260.276 185.485C274.741 177.504 286.335 173.646 321.129 187.21L354.351 184.308C309.316 168.602 273.186 173.402 258.065 181.731Z" fill="#315597"/>
<path d="M205.288 176.953C205.327 176.989 205.381 177.015 205.405 177.051C205.37 176.994 205.33 176.865 205.338 176.798C205.334 176.808 205.326 176.865 205.288 176.953Z" fill="#315597"/>
<path d="M389.644 167.322C356.496 171.473 344.964 167.718 344.517 165.88C344.497 165.813 344.215 157.995 398.905 143.122C429.318 134.835 437.573 129.473 436.472 125.613C433.125 113.836 357.215 119.319 323.03 126.221C294.761 131.914 285.609 127.502 272.944 121.405C259.693 115.02 243.2 107.074 199.956 106.619C147.708 106.1 128.926 115.224 105.153 126.762C89.8576 134.203 72.5318 142.62 42.6456 150.239C28.6305 153.814 17.4579 155.961 8.53485 157.115L7.84652 161.507C17.9541 160.287 29.955 157.932 43.8881 154.378C74.1924 146.665 91.6977 138.139 107.173 130.62C130.465 119.305 148.853 110.374 200.128 110.879C242.378 111.321 258.374 119.016 271.226 125.226C284.172 131.457 294.386 136.383 324.069 130.396C367.766 121.569 423.239 121.816 427.218 127.213C427.253 127.151 427.268 127.104 427.276 127.078C427.253 127.12 427.269 127.254 427.312 127.3C427.288 127.274 427.245 127.244 427.218 127.213C426.817 128.04 423.594 131.922 397.6 139.014C357.764 149.835 329.698 162.495 331.551 170.056C333.93 179.77 376.128 173.333 390.378 171.55C416.433 168.253 454.469 167.399 494.714 166.478C524.099 165.791 554.136 165.098 579.624 163.388L580.726 159.027C555.012 160.798 524.377 161.514 494.406 162.207C454.051 163.14 415.913 164.014 389.644 167.322Z" fill="#315597"/>
<path d="M427.277 127.076C427.269 127.102 427.25 127.153 427.219 127.21C427.242 127.241 427.289 127.272 427.313 127.298C427.27 127.252 427.25 127.122 427.277 127.076Z" fill="#315597"/>
<path d="M480.059 149.247C465.448 150.778 451.051 153.155 438.346 155.265C417.453 158.738 397.709 161.987 392.913 158.178C392.322 157.715 392.047 157.168 391.99 156.388C391.619 150.651 409.389 147.542 423.684 145.067C440.505 142.11 469.23 140.717 472.116 133.2C473.125 130.548 472.515 127.658 470.302 124.554C453.821 101.615 353.883 102.255 327.366 113.857C308.242 122.207 300.793 119.194 276.151 109.25C267.556 105.766 252.402 93.9426 238.564 89.0881C186.461 70.8285 136.139 95.193 99.3695 112.555C78.4701 122.417 62.0076 127.568 44.5764 133.042C34.3567 136.245 23.7972 139.568 12.3528 143.9C11.7279 144.139 11.1263 144.348 10.517 144.561L9.75934 149.376C11.1383 148.923 12.5602 148.439 14.0367 147.878C25.3678 143.603 35.8843 140.275 46.0454 137.103C62.836 131.832 80.1891 126.395 101.35 116.408C137.424 99.3884 191.051 82.8345 241.742 100.612C255.513 105.452 266.151 109.746 274.699 113.189C299.291 123.108 308.485 126.833 329.226 117.751C356.239 105.967 440.09 106.196 454.016 125.568C455.979 128.3 455.435 129.686 455.26 130.167C453.198 135.543 437.031 138.369 422.747 140.85C403.625 144.185 387.106 147.079 387.732 156.446C387.855 158.47 388.755 160.193 390.322 161.433C396.697 166.519 414.545 163.57 439.252 159.471C451.887 157.367 466.218 154.995 480.708 153.47C499.364 151.515 520.413 153.68 540.78 155.775C554.949 157.231 568.485 158.729 580.778 158.841L581.896 154.387C569.35 154.445 555.38 153.015 541.012 151.54C520.444 149.414 499.15 147.234 480.059 149.247Z" fill="#315597"/>
<path d="M451.4 85.8907C451.023 86.15 450.203 86.6224 448.062 87.3434C444.591 88.442 441.09 89.13 437.306 89.4943C435.349 89.6849 434.22 89.6945 433.538 89.6201C433.207 88.6606 432.753 87.3206 432.753 87.3206L431.932 84.8987C431.919 84.7894 431.848 84.2631 431.848 84.2631C431.848 84.2631 431.834 83.9651 431.847 83.8657C432.912 83.5682 434.739 83.1859 438.033 82.8759L448.03 82.7006C449.922 82.8678 450.816 83.031 451.412 83.1288C451.485 84.3076 451.497 85.2248 451.4 85.8907ZM488.668 87.3858C488.31 83.6115 484.79 72.2355 484.79 72.2355C481.631 62.0408 478.867 56.1898 473.438 54.439C467.601 52.5336 459.12 52.2611 445.93 53.521C429.97 55.0101 421.035 58.6233 417.713 64.8579C416.514 67.0963 414.856 71.5879 414.36 84.4249C414.037 92.6253 414.315 101.115 415.184 110.422C416.863 128.211 419.483 133.496 421.609 136.097C426.014 141.387 435.982 142.874 454.889 141.086L472.805 138.853L483.868 137.162L487.743 104.774L485.544 102.041C483.81 101.354 479.826 102.533 476.257 102.9C475.873 102.908 457.39 106.016 457.39 106.016C455.039 106.214 452.32 108.589 452.691 112.466C452.691 112.466 452.905 112.923 452.985 113.105C450.22 113.234 444.28 113.498 440.356 113.668C439.751 111.536 439.154 108.501 438.723 105.923C439.773 105.857 461.355 102.638 471.8 99.2425C483.367 95.4535 486.35 93.8064 487.745 91.4912C487.758 91.4382 487.794 91.4083 487.837 91.3387C487.903 91.1961 488.091 91.0631 488.137 90.8974C488.137 90.8974 487.985 91.0767 487.939 91.0801C488.473 90.1813 488.818 89.0147 488.668 87.3858Z" fill="#A8AC06"/>
<path d="M459.775 84.2346L459.771 84.1386C459.405 85.6695 457.104 87.1492 453.027 88.4945C449.262 89.6767 445.317 90.4719 441.159 90.8769C436.713 91.3091 434.416 90.5303 433.063 89.9907C428.965 88.1901 429.799 77.8425 430.115 77.0502C430.74 75.5053 434.34 74.403 440.915 73.7963C444.812 73.4152 448.405 73.4058 451.737 73.6354C455.37 73.9041 459.664 74.7439 459.947 77.7037C460.212 80.5675 460.342 81.9382 459.775 84.2346ZM481.727 70.3047C478.771 60.8811 476.582 56.9162 473.775 55.993C468.445 54.2651 461.331 53.8533 449.79 54.9367C436.084 56.2278 428.078 59.1166 425.745 63.4808C424.252 66.293 423.333 72.1138 422.969 80.7978C422.659 88.9484 422.959 97.3094 423.777 106.083C424.949 118.455 426.754 126.074 429.063 128.949C432.065 132.511 441.612 133.512 457.755 132.013C462.906 131.516 468.775 130.752 475.429 129.791C477.839 129.443 480.152 129.037 482.556 128.716L485.409 104.414C484.484 104.069 461.369 107.226 461.416 107.733C461.46 108.047 462.371 109.263 462.761 110.418C463.155 111.447 463.221 112.848 463.258 113.165C463.31 113.698 463.217 113.924 462.933 113.945C461.907 114.166 460.629 114.285 459.165 114.428C454.444 114.871 448.11 115.129 440.209 115.243C438.305 112.545 436.621 101.767 436.352 99.142C436.321 98.4963 436.256 97.8474 436.281 97.1188C438.711 97.0958 441.344 96.9532 444.052 96.701C453.543 95.8117 463.393 93.693 473.514 90.4045C482.695 87.3999 485.741 85.8984 485.358 84.9589C485.468 85.0745 485.451 84.9653 485.393 84.419C485.018 80.3964 483.965 77.7632 481.727 70.3047Z" fill="#FFF64D"/>
<path d="M379.811 79.6723C379.811 79.6723 379.079 79.4325 378.307 79.1994C377.397 77.1155 376.406 74.2171 375.651 69.2285C374.216 59.7711 374.952 56.4642 375.317 55.4466C375.873 55.1471 377.05 54.7201 379.202 54.2806C379.39 56.5684 379.958 62.1669 380.813 67.7148C381.44 71.9785 382.236 76.0828 383.1 78.3655C383.1 78.3556 383.363 79.1695 383.697 80.1953C382.372 80.0729 381.044 79.9241 379.811 79.6723ZM415.315 81.4269C415.09 80.3215 414.859 79.0537 414.669 77.6369C413.264 68.4211 412.067 53.7274 412.266 50.2232C412.683 41.3073 412.5 34.7906 411.719 29.6928L411.209 26.0845L407.628 25.3157C402.452 24.1768 394.86 24.6074 383.765 26.6069C382.087 26.8597 379.375 28.3173 378.968 33.2858C376.876 33.5396 374.118 33.7389 369.839 33.7734C362.164 33.8995 357.892 34.1359 355.446 34.5033C345.847 35.9591 342.939 40.7818 342.23 44.582C339.081 60.827 338.121 72.3605 339.263 79.8284C340.469 87.8095 344.136 94.3171 350.175 99.1858C353.534 101.949 359.516 102.685 370.846 101.711C370.846 101.711 381.31 100.396 387.719 99.5476C388.872 107.396 389.02 113.618 388.394 118.511C386.274 119.318 382.557 120.295 379.317 120.896C381.645 113.191 381.726 112.694 381.511 111.307L380.847 106.987L376.148 106.847L358.803 105.975C352.858 105.593 350.03 105.501 348.598 108.923C347.152 111.765 346.838 115.653 347.667 121.205C348.351 125.769 349.812 131.187 352.186 138.36C355.639 148.219 356.55 150.876 361.207 150.185C363.663 149.718 369.13 148.432 389.479 141.988C415.555 133.769 417.434 131.721 418.55 129.344C420.562 126.186 421.858 120.232 419.084 101.797L415.315 81.4269Z" fill="#A8AC06"/>
<path d="M393.79 81.4258C389.436 81.7816 385.489 81.6065 381.817 80.7949C380.27 80.4281 378.808 79.9517 377.552 79.4781C375.848 76.2803 374.482 71.7702 373.599 66.0103C372.197 56.682 372.45 50.6509 374.399 47.8673C376.368 46.0176 380.409 44.9241 386.61 44.3714C387.099 44.2972 387.332 45.8464 387.502 48.8562C387.627 51.1409 389.383 67.7439 391.164 72.4814C392.868 77.1562 393.786 79.9422 393.928 80.8293C393.988 81.1968 393.876 81.4024 393.79 81.4258ZM413.323 78.4802C411.683 70.3876 409.916 50.7049 410.162 45.9289C410.521 37.8973 410.179 32.2785 409.437 27.2865C404.875 26.2852 397.804 25.9726 387.874 27.7637C387.391 27.8445 387.122 33.8822 386.612 33.9465C383.782 34.5699 379.22 34.9726 373.021 35.0419C366.263 35.149 361.654 35.3631 359.37 35.7069C354.097 36.499 351.108 38.4342 350.527 41.585C347.547 57.0315 346.583 68.1941 347.625 75.0331C348.625 81.6503 351.58 87.0173 356.614 91.0575C358.741 92.8136 364.405 93.2193 373.516 92.4602C377.923 92.0678 385.05 91.2014 394.931 89.6951C395.259 89.6479 395.564 91.1936 396.043 94.345C397.509 104.067 397.681 111.707 396.58 117.475C396.237 119.297 385.637 121.766 381.539 122.396C380.096 122.612 378.408 122.785 376.765 122.726C375.093 122.794 374.407 122.799 374.679 122.762C374.98 122.711 375.805 120.311 377.349 115.575C378.787 110.819 379.509 108.347 379.472 108.062C379.174 108.103 371.742 107.854 368.467 107.667C360.607 107.208 356.543 106.818 356.471 107.003C355.475 108.854 355.345 112 356.025 116.426C356.703 120.931 358.204 126.328 360.326 132.671C362.268 138.186 363.262 140.995 363.55 140.932C366.986 140.31 376.115 137.647 391.048 132.965C407.638 127.712 416.391 124.305 417.056 122.826C419.092 120.075 419.034 111.919 417.009 98.5586C416.23 93.2985 415 86.5892 413.323 78.4802Z" fill="#FFF64D"/>
<path d="M345.329 93.5504C342.419 80.07 338.681 72.887 333.171 70.2489C331.012 69.1253 326.876 67.8811 314.893 68.4126C308.579 68.7139 303.146 69.3839 298.152 70.321C297.93 68.9605 295.592 58.7967 295.592 58.7967L290.312 61.026L267.849 70.4469L269.071 75.5766L270.027 78.8261C271.505 85.7037 272.45 98.7456 272.837 117.617L273.455 149.851C273.455 149.851 272.406 155.122 280.163 153.33C285.343 152.124 297.705 148.618 305.362 146.399C309.459 145.531 310.17 137.597 310.17 137.597L308.67 131.323L304.811 110.582C304.043 105.481 303.69 102.462 303.53 100.605C306.193 99.8459 307.792 99.4078 310.902 98.5453C312.185 102.794 313.687 108.443 315.28 115.029L317.836 127.182L319.548 134.741C321.331 140.674 327.686 139.32 330.744 138.64C337.155 137.255 341.638 135.899 344.78 134.417C348.812 132.572 348.972 128.064 348.415 117.412C347.922 108.787 346.877 100.769 345.329 93.5504Z" fill="#A8AC06"/>
<path d="M343.336 92.3321C340.895 81.0328 337.71 74.8319 333.515 72.4221C331.057 71.1867 325.834 69.4685 317.891 69.8006C309.891 70.1925 297.112 72.5243 297.079 72.7761C296.757 69.8992 294.31 62.3022 294.51 61.7387C287.171 65.096 281.773 67.5641 276.844 69.3587C277.29 70.4205 277.665 71.827 278.027 73.505C279.616 80.7234 280.601 94.0036 280.989 113.293C281.47 133.833 281.554 144.102 281.554 144.102C291.894 140.992 300.901 138.534 308.526 136.557C308.186 135.919 307.493 133.132 306.444 128.217C304.889 121.115 303.592 114.174 302.514 107.199C301.241 98.8671 300.784 93.9374 301.28 92.3796L317.213 87.8671C318.754 92.0556 320.809 99.2463 323.28 109.608C325.547 119.16 326.482 125.774 327.461 128.997C327.688 129.708 328.057 130.24 332.498 129.291C338.217 128.054 342.555 126.795 345.4 125.453C346.276 125.059 346.444 121.019 346.067 113.479C345.612 105.513 344.924 99.6366 343.336 92.3321Z" fill="#FFF64D"/>
<path d="M149.339 124.762C147.785 116.868 144.717 107.163 139.196 99.3327C133.379 91.0227 121.757 85.1155 105.672 81.1341L82.7763 75.9719L68.711 72.8893C59.2775 70.6887 57.6973 70.4776 55.6367 67.6085C53.5794 64.7428 55.4796 59.4922 64.4723 57.7367C75.2058 55.6222 90.8072 57.2602 110.972 62.6051C113.44 63.2477 115.972 63.9597 118.58 64.7244L127.673 51.7092L120.947 2.55967L114.462 1.99717C106.661 1.30566 98.8458 1.14073 91.0381 1.41953C78.5517 1.85302 66.0947 3.42562 53.7923 5.83896C40.4473 8.46366 29.9794 12.1438 22.6999 16.8356L22.2272 17.1614L21.7745 17.5235C13.6399 24.5058 4.87297 37.8117 9.50133 61.3615C11.3238 70.649 14.7941 79.409 19.7792 87.4861C20.6073 88.8284 21.4618 90.1508 22.3693 91.4532C28.1425 99.5117 38.5527 105.399 53.4076 109.042C53.4076 109.042 63.0569 111.448 72.9663 113.246C82.8723 115.048 98.1658 114.2 98.1806 119.846C98.188 122.665 92.3959 125.038 80.1595 127.391C68.3503 129.747 54.5261 130.21 39.0845 128.877L27.2498 140.432L28.1484 145.894L36.0799 194.024L70.6831 185.789L115.383 175.145C126.771 172.512 136.031 166.474 142.785 157.17C149.427 148.029 151.699 136.814 149.339 124.762Z" fill="#A8AC06"/>
<path d="M188.2 61.2495C185.292 62.5718 182.308 63.6658 179.203 64.1939C176.595 64.6213 174.651 64.484 173.639 63.9336C173.266 63.11 172.453 61.0855 172.453 61.0855L170.435 52.9741C169.937 49.9784 170 48.8291 170.042 48.2793C171.318 47.5275 173.997 46.3647 179.426 45.4365C183.136 44.8505 184.975 45.051 185.889 45.2539C186.249 46.2233 186.794 48.2055 187.487 52.3597C188.339 57.5534 188.302 60.0405 188.2 61.2495ZM201.458 24.4758C175.984 18.4825 133.159 32.103 131.509 34.134L125.278 42.2969L133.07 82.7175C137.916 111.979 138.851 122.627 138.768 126.426L138.657 133.36L166.745 129.432L173.868 118.028C173.686 118.27 163.321 86.6551 163.321 86.6551C171.624 87.0638 178.436 87.2082 188.194 85.5864C198.498 83.8704 205.745 81.8445 210.308 79.4085C214.558 77.2083 215.05 71.829 215.206 66.9705C215.266 61.8904 215.03 56.609 214.148 51.2201C211.739 36.7183 208.036 26.0217 201.458 24.4758Z" fill="#A8AC06"/>
<path d="M329.802 84.3485C329.136 83.8933 328.463 83.6798 327.778 83.7048C325.384 83.8104 323.703 87.0004 324.104 90.685C324.382 93.254 325.587 95.5423 327.225 96.6473C327.892 97.0959 328.568 97.3061 329.244 97.2844C331.637 97.1921 333.324 93.9921 332.924 90.3108C332.642 87.7452 331.451 85.4635 329.802 84.3485Z" fill="#A8AC06"/>
<path d="M291.517 74.6381C291.195 74.4237 290.867 74.3253 290.543 74.3394C289.387 74.3821 288.564 75.9208 288.767 77.7051C288.903 78.9432 289.478 80.0511 290.275 80.5854C290.596 80.8031 290.931 80.9115 291.252 80.8941C292.404 80.8481 293.215 79.3061 293.028 77.5317C292.896 76.2803 292.317 75.1791 291.517 74.6381Z" fill="#A8AC06"/>
<path d="M294.239 117.028C293.363 116.424 292.459 116.141 291.558 116.177C288.376 116.318 286.139 120.552 286.675 125.439C287.045 128.855 288.632 131.904 290.818 133.369C291.704 133.979 292.606 134.255 293.503 134.216C296.681 134.078 298.929 129.85 298.389 124.964C298.019 121.548 296.432 118.509 294.239 117.028Z" fill="#A8AC06"/>
<path d="M249.126 65.9943C248.285 68.6093 245.85 74.4375 238.917 87.404C238.027 89.0754 237.119 90.1673 233.593 89.0241C231.551 88.3738 229.651 87.2098 227.859 85.8501C227.777 85.0257 227.67 83.2742 228.088 79.6369C228.634 74.7145 229.842 69.4061 231.6 63.9407C232.858 60.0331 233.862 57.9607 234.558 56.7799C234.859 56.8487 235.24 56.9238 235.24 56.9238L242.772 60.0401C242.865 60.0598 247.499 61.8988 249.853 62.8298C249.821 63.4524 249.655 64.3901 249.126 65.9943ZM276.583 51.3677C274.549 47.1938 242.758 28.1032 219.262 36.5697C214.654 38.5058 211.053 44.2609 207.486 55.2614C205.147 62.5299 203.088 71.4733 201.366 81.7967C199.822 91.3878 199.072 98.3971 199.121 103.205C199.201 107.298 201.579 111.127 206.503 114.945C210.562 118.111 215.204 120.499 220.732 122.28C231.646 125.794 240.967 125.326 248.446 120.935C253.842 117.745 259.208 111.893 264.847 103.026C269.903 95.1281 273.937 86.5769 276.784 77.6811C280.874 64.9704 280.822 56.5988 276.599 51.3544L276.583 51.3677Z" fill="#A8AC06"/>
<path d="M259.032 66.1259C257.705 70.2324 254.175 77.6762 248.454 88.391C246.144 92.7154 242.403 94.0896 237.156 92.4045C234.342 91.4979 231.633 90.0579 229.098 87.9451C227.87 86.9681 227.516 83.5117 228.177 77.6716C228.795 72.1761 230.111 66.5462 231.911 60.9979C233.636 55.6187 235.371 52.1105 237.056 50.437C237.644 49.8526 239.276 49.8881 241.891 50.7256C243.476 51.2348 246.111 52.3108 249.93 54.0062C253.643 55.5496 256.302 56.6321 257.89 57.1611C260.316 57.9429 260.684 60.9588 259.032 66.1259ZM254.156 41.4707C241.539 37.4007 232.813 36.0692 226.319 39.8019C223.335 41.0648 220.325 46.2355 217.382 55.3898C215.053 62.6384 213.096 71.3099 211.436 81.2126C209.97 90.277 209.23 97.1174 209.282 101.76C209.311 104.217 211.153 106.792 214.723 109.564C218.267 112.324 222.418 114.485 227.373 116.078C236.812 119.103 244.736 118.874 250.965 115.195C255.564 112.484 260.494 107.113 265.715 98.9196C270.672 91.131 273.031 82.9186 275.708 74.6161C279.167 63.8543 279.39 56.7603 276.383 52.9962C274.111 50.4324 264.735 44.8273 254.156 41.4707Z" fill="#FFF64D"/>
<path d="M220.228 93.1551C218.057 92.3826 215.424 94.6314 214.473 98.0579C213.807 100.441 214.058 102.904 215.129 104.484C215.561 105.125 216.092 105.557 216.708 105.771C218.872 106.534 221.516 104.281 222.467 100.865C223.126 98.4756 222.878 96.0225 221.804 94.4424C221.369 93.7978 220.841 93.3687 220.228 93.1551Z" fill="#A8AC06"/>
<path d="M259.809 80.2329C258.732 79.739 257.274 80.7627 256.63 82.4831C256.169 83.6863 256.183 84.9678 256.665 85.8242C256.855 86.178 257.117 86.4191 257.415 86.5574C258.49 87.0579 259.954 86.0209 260.605 84.3005C261.052 83.1006 261.042 81.8291 260.563 80.9627C260.37 80.6122 260.114 80.3712 259.809 80.2329Z" fill="#A8AC06"/>
<path d="M475.734 69.9842C475.14 69.5619 474.524 69.3582 473.908 69.3929C471.746 69.5145 470.237 72.5815 470.601 76.1039C470.862 78.5636 471.948 80.7331 473.441 81.7855C474.041 82.2012 474.661 82.3982 475.27 82.3668C477.429 82.2486 478.95 79.1749 478.577 75.6558C478.312 73.1994 477.224 71.0333 475.734 69.9842Z" fill="#A8AC06"/>
<path d="M457.376 57.981C457.017 57.7302 456.649 57.6087 456.285 57.6262C454.991 57.6991 454.092 59.536 454.306 61.6349C454.468 63.0948 455.114 64.3978 456 65.028C456.362 65.2787 456.73 65.4036 457.097 65.3761C458.382 65.3065 459.291 63.4729 459.07 61.3707C458.914 59.9009 458.268 58.6111 457.376 57.981Z" fill="#A8AC06"/>
<path d="M445.993 118.134C445.476 117.754 444.932 117.584 444.396 117.615C442.509 117.716 441.184 120.402 441.501 123.49C441.728 125.626 442.683 127.54 443.98 128.448C444.515 128.817 445.048 128.988 445.584 128.967C447.468 128.856 448.802 126.173 448.476 123.091C448.249 120.939 447.303 119.038 445.993 118.134Z" fill="#A8AC06"/>
<path d="M403.581 82.7345C402.938 82.2097 402.238 81.8903 401.526 81.8094C398.986 81.5214 396.787 84.3021 396.744 87.8985C396.717 90.392 397.694 92.7638 399.303 94.0874C399.944 94.6222 400.64 94.9349 401.365 95.0191C403.906 95.3039 406.104 92.5231 406.144 88.9268C406.167 86.4332 405.198 84.0615 403.581 82.7345Z" fill="#A8AC06"/>
<path d="M359.01 44.2845C356.844 44.1578 355.001 47.0369 354.964 50.5736C354.944 53.0407 355.781 55.3234 357.145 56.5351C357.693 57.0237 358.279 57.2904 358.892 57.3286C361.045 57.452 362.911 54.5794 362.932 51.0362C362.945 48.5658 362.128 46.2764 360.754 45.078C360.213 44.5794 359.62 44.316 359.01 44.2845Z" fill="#A8AC06"/>
<path d="M409.899 105.608C408.644 105.525 407.555 107.206 407.534 109.286C407.521 110.723 408.012 112.063 408.812 112.766C409.127 113.054 409.475 113.215 409.836 113.234C411.088 113.303 412.176 111.622 412.197 109.545C412.203 108.105 411.726 106.772 410.923 106.068C410.608 105.775 410.263 105.62 409.899 105.608Z" fill="#A8AC06"/>
<path d="M145.877 119.806C144.531 113.024 141.321 106.111 136.544 99.2818C132.213 93.0277 122.88 87.6245 108.353 84.0662C96.2684 81.0116 83.9569 78.6728 71.5081 75.8045C59.2845 72.9324 52.6989 69.4923 51.88 65.3351C51.7188 64.4944 51.5942 63.6801 51.496 62.8823C50.1959 52.0203 55.4503 45.3701 67.5343 42.9838C68.4445 42.8092 69.3878 42.6611 70.3511 42.5327C83.6884 40.7359 102.147 43.297 125.617 50.2228L118.4 4.39279C108.589 3.51117 98.7932 3.33158 89.0422 3.84067C79.321 4.34969 69.648 5.54408 60.0662 7.42705C47.5355 9.90059 38.1992 13.2201 31.8749 17.2438C22.4419 25.3356 19.2249 37.3452 22.3263 53.2095C23.8501 60.9546 26.6142 68.16 30.483 74.8227C31.5209 76.6182 32.6216 78.3704 33.8182 80.086C38.1523 86.1713 46.9078 91.1687 60.0396 94.3829C70.9147 97.0003 82 98.9382 93.027 101.357C104.031 103.871 109.825 107.323 110.499 111.633C111.762 119.796 103.721 125.645 86.4436 129.036C72.9827 131.684 57.3934 132.102 39.7616 130.287L45.0182 162.273L47.4916 177.328L62.6785 173.722L118.148 160.542C127.702 158.304 135.318 153.161 140.733 145.676C146.055 138.37 147.813 129.626 145.877 119.806Z" fill="#FFF64D"/>
<path d="M114.885 41.5828C114.278 41.0645 113.618 40.7749 112.939 40.7402C110.558 40.5842 108.543 43.5764 108.552 47.2786C108.559 49.8681 109.519 52.2697 111.036 53.5472C111.653 54.0622 112.306 54.3452 112.985 54.3964C115.373 54.5458 117.382 51.5437 117.372 47.8415C117.365 45.2586 116.412 42.8537 114.885 41.5828Z" fill="#A8AC06"/>
<path d="M42.9191 71.175C42.3321 70.8222 41.7357 70.6781 41.163 70.7491C39.1304 70.9697 37.8894 73.7811 38.4506 76.899C38.8371 79.0669 39.9977 80.9415 41.4635 81.7953C42.0571 82.1381 42.6502 82.2823 43.2229 82.2112C45.2456 81.994 46.4997 79.1693 45.9386 76.0514C45.5488 73.8934 44.3915 72.0123 42.9191 71.175Z" fill="#A8AC06"/>
<path d="M132.961 116.284C132.055 115.654 131.124 115.351 130.19 115.38C126.899 115.475 124.543 119.849 125.046 124.925C125.4 128.451 127.007 131.619 129.27 133.159C130.176 133.796 131.117 134.108 132.041 134.07C135.332 133.968 137.695 129.604 137.185 124.522C136.825 120.989 135.22 117.824 132.961 116.284Z" fill="#A8AC06"/>
<path d="M41.4593 45.7733C41.7147 45.9183 41.96 46.0336 42.2087 46.1455C43.452 46.7218 44.6879 46.9736 45.8863 46.8313C51.0045 46.2715 54.1286 39.173 52.7139 31.3446C51.7359 25.8862 48.8192 21.1713 45.1245 19.0251C43.632 18.1581 42.1508 17.8043 40.7008 17.9638C37.2677 18.347 34.7431 21.6686 33.8674 26.1682C33.4361 28.3882 33.4029 30.8786 33.8633 33.4539C34.8513 38.9156 37.7679 43.6436 41.4593 45.7733Z" fill="#A8AC06"/>
<path d="M60.6288 145.559C59.713 144.869 58.7518 144.534 57.7915 144.537C54.3575 144.552 51.7896 149.016 52.1711 154.294C52.4357 157.966 54.0273 161.306 56.3233 162.976C57.2523 163.656 58.2069 164.001 59.1738 163.998C62.5879 163.976 65.1591 159.509 64.7843 154.234C64.513 150.543 62.9347 147.222 60.6288 145.559Z" fill="#A8AC06"/>
<path d="M121.915 142.773C121.447 142.489 120.967 142.381 120.497 142.435C118.865 142.612 117.864 144.883 118.315 147.385C118.634 149.133 119.561 150.64 120.742 151.319C121.216 151.599 121.693 151.711 122.164 151.663C123.796 151.483 124.8 149.219 124.346 146.713C124.03 144.959 123.106 143.455 121.915 142.773Z" fill="#A8AC06"/>
<path d="M195.529 61.5337C191.842 63.3945 187.838 64.7231 183.552 65.4331C178.567 66.2442 175.122 65.6771 172.891 63.8483C172.234 63.2837 171.398 61.4745 170.367 58.4968C169.346 55.5091 168.62 52.5571 168.108 49.472C167.254 44.3115 167.49 41.1019 168.904 39.8994C171.28 37.8864 175.674 36.2886 181.853 35.2557C187.255 34.3639 190.988 34.7051 193.291 36.2522C194.402 37.0342 195.524 40.5912 196.584 46.9334C198.007 55.6226 197.646 60.5148 195.529 61.5337ZM202.345 26.605C195.993 23.6611 159.562 24.2965 134.658 35.2239C136.746 45.9116 142.172 76.8607 142.16 77.2979C142.173 77.331 148.814 122.06 148.58 122.292L172.257 118.571C172.257 118.571 160.876 83.6269 158.997 76.7338C168.604 78.116 178.096 77.4883 190.648 75.4187C200.333 73.8071 207.176 71.8982 211.026 69.8117C212.127 69.2458 212.69 66.764 212.824 62.3095C212.852 57.8984 212.462 53.0546 211.587 47.712C209.568 35.577 206.437 28.4984 202.345 26.605Z" fill="#FFF64D"/>
<path d="M204.62 38.9353C204.149 38.6584 203.672 38.5504 203.215 38.6045C201.59 38.8075 200.622 41.0651 201.096 43.5475C201.425 45.2718 202.372 46.7727 203.546 47.4286C204.027 47.6956 204.501 47.8003 204.961 47.7494C206.583 47.5432 207.547 45.2856 207.071 42.8099C206.742 41.0855 205.801 39.5879 204.62 38.9353Z" fill="#A8AC06"/>
<path d="M154.569 106.72C154.049 106.413 153.522 106.296 153.015 106.347C151.221 106.57 150.148 109.079 150.675 111.82C151.041 113.73 152.086 115.373 153.392 116.108C153.919 116.401 154.446 116.529 154.943 116.465C156.747 116.245 157.813 113.745 157.286 111.005C156.923 109.088 155.879 107.442 154.569 106.72Z" fill="#A8AC06"/>
<path d="M158.103 50.2019C157.333 49.6509 156.515 49.3285 155.68 49.2347C152.719 48.8981 150.332 51.6197 150.46 55.1791C150.553 57.6658 151.808 60.0533 153.732 61.3994C154.505 61.947 155.327 62.2793 156.165 62.3698C159.113 62.7098 161.506 59.9881 161.368 56.4188C161.275 53.9288 160.027 51.5512 158.103 50.2019Z" fill="#A8AC06"/>
</g>
<g filter="url(#filter1_d_10_7223)">
<path d="M499.133 23.7092L507.172 65.2491C509.909 65.2491 513.659 50.8647 518.42 22.0957H521.629C523.768 22.0957 524.837 23.6978 524.837 26.902C518.742 58.8522 514.464 74.8274 512.002 74.8274H495.924L486.298 23.7092H499.133Z" fill="#FFCEF3"/>
<path d="M546.953 22.0957H550.611C562.778 22.0957 568.862 26.9477 568.862 36.6518L545.125 58.4517L546.953 60.2712H554.268C564.619 60.2712 572.531 59.0582 578.005 56.6322V58.4517C576.372 66.9428 574.544 71.1883 572.52 71.1883L532.324 74.8274V60.2712L556.096 36.6518L554.268 34.8323H550.611L528.667 36.6518C528.667 26.9477 534.763 22.0957 546.953 22.0957Z" fill="#FFCEF3"/>
<path d="M500.115 23.5192L499.958 22.7092H499.133H486.298H485.092L485.315 23.8943L494.942 75.0124L495.095 75.8274H495.924H512.002C512.437 75.8274 512.802 75.6503 513.082 75.4429C513.359 75.2369 513.602 74.9642 513.818 74.6681C514.25 74.0768 514.678 73.2456 515.11 72.2207C515.98 70.1592 516.95 67.1107 518.023 63.1047C520.172 55.0807 522.771 43.0703 525.82 27.0894L525.837 26.9965V26.902C525.837 25.2202 525.562 23.7838 524.867 22.742C524.124 21.6288 522.989 21.0957 521.629 21.0957H518.42H517.572L517.433 21.9324C515.054 36.3096 512.932 47.0617 511.069 54.2086C510.136 57.7889 509.279 60.421 508.503 62.141C508.264 62.6718 508.041 63.0956 507.838 63.4245L500.115 23.5192ZM569.539 37.3884L569.862 37.0912V36.6518C569.862 31.578 568.261 27.6148 564.923 24.9529C561.628 22.3255 556.801 21.0957 550.611 21.0957H546.953C540.752 21.0957 535.916 22.3254 532.616 24.9523C529.272 27.614 527.667 31.5774 527.667 36.6518V37.7382L528.75 37.6484L550.652 35.8323H553.855L554.678 36.6513L531.62 59.5618L531.324 59.8551V60.2712V74.8274V75.922L532.415 75.8233L572.57 72.1878C573.437 72.1701 574.163 71.7022 574.742 71.0643C575.329 70.4174 575.85 69.5083 576.328 68.3998C577.285 66.1761 578.167 62.9071 578.987 58.6406L579.005 58.547V58.4517V56.6322V55.0952L577.6 55.7179C572.314 58.0604 564.566 59.2712 554.268 59.2712H547.366L546.572 58.4807L569.539 37.3884Z" stroke="#DA2CAF" stroke-width="2"/>
</g>
<path d="M558.023 27.3912C557.61 27.6209 557.318 27.925 557.166 28.2954C556.633 29.5956 558.007 31.3368 560.172 32.1089C561.685 32.6436 563.259 32.6147 564.293 32.0347C564.705 31.7993 564.993 31.4914 565.145 31.1259C565.68 29.8285 564.305 28.0777 562.14 27.3124C560.627 26.7805 559.054 26.8122 558.023 27.3912Z" fill="#DA2CAF"/>
<path d="M485.803 26.2447C485.39 26.4744 485.098 26.7785 484.946 27.1489C484.413 28.4491 485.787 30.1903 487.952 30.9624C489.466 31.4971 491.04 31.4682 492.074 30.8882C492.485 30.6528 492.774 30.345 492.926 29.9794C493.46 28.682 492.085 26.9312 489.92 26.1659C488.407 25.634 486.834 25.6657 485.803 26.2447Z" fill="#DA2CAF"/>
<path d="M495.8 62.896C495.46 63.0848 495.221 63.3347 495.096 63.6392C494.657 64.708 495.787 66.1392 497.567 66.7739C498.811 67.2135 500.105 67.1897 500.955 66.7129C501.293 66.5194 501.53 66.2664 501.655 65.9659C502.094 64.8995 500.964 63.4603 499.184 62.8312C497.941 62.394 496.648 62.4201 495.8 62.896Z" fill="#DA2CAF"/>
<path d="M539.74 61.1245C539.302 60.9826 538.891 60.9769 538.526 61.1149C537.245 61.5991 536.918 63.736 537.807 65.7918C538.432 67.2259 539.499 68.3284 540.6 68.6795C541.041 68.8161 541.452 68.8172 541.814 68.6825C543.094 68.2008 543.427 66.0574 542.533 64.0055C541.907 62.5741 540.838 61.4742 539.74 61.1245Z" fill="#DA2CAF"/>
<path d="M531.553 26.1955C531.213 26.46 530.957 26.781 530.8 27.1487C530.246 28.4393 531.089 29.9286 532.643 30.4109C533.73 30.7433 534.927 30.5357 535.778 29.8688C536.117 29.5991 536.371 29.2749 536.528 28.9117C537.082 27.6237 536.24 26.1253 534.685 25.6495C533.598 25.3197 532.402 25.5299 531.553 26.1955Z" fill="#DA2CAF"/>
<path d="M564.901 68.4106C564.197 68.1143 563.46 67.9589 562.719 67.9582C560.117 67.9556 558.234 69.888 558.592 72.1865C558.851 73.7917 560.106 75.2398 561.877 75.9787C562.59 76.271 563.33 76.4222 564.064 76.4248C566.661 76.4295 568.56 74.4932 568.191 72.1965C567.928 70.5933 566.668 69.1472 564.901 68.4106Z" fill="#DA2CAF"/>
<g filter="url(#filter2_d_10_7223)">
<path d="M316.541 145.096H318.474L319.451 149.939V155.74H310.74L311.697 148.963H305.896L303.962 150.896V158.65C303.962 167.036 304.926 171.229 306.853 171.229H310.74V166.385H320.408V173.162L318.474 175.096H312.673C302.348 175.096 297.185 172.518 297.185 167.361V153.807C297.185 148.65 299.119 146.072 302.986 146.072L316.541 145.096ZM336.13 145.252H338.064C343.194 145.252 345.759 150.389 345.759 160.662V168.357C345.759 172.85 341.905 175.096 334.197 175.096H329.392C324.9 175.096 322.654 172.205 322.654 166.424V161.619C322.654 151.346 323.936 146.209 326.502 146.209L336.13 145.252ZM328.435 162.576V169.314L330.349 171.248H337.087L338.064 166.424C338.064 156.801 336.456 151.99 333.24 151.99H332.283C329.718 151.99 328.435 155.519 328.435 162.576ZM358.22 146.189L361.951 162.029C363.435 162.029 364.991 156.437 366.619 145.252H374.08V147.107L375.017 175.096H367.556L368.494 161.111H366.619C366.619 166.697 365.063 171.359 361.951 175.096H361.033L356.365 153.65H354.49L356.365 174.158H347.966L348.904 169.49V161.111L347.966 147.107L348.904 146.189H358.22ZM377.908 145.252H382.732L384.646 147.186L385.623 172.205L386.58 175.096H376.951L377.908 165.467V150.057L378.884 149.1L377.908 148.143V145.252ZM404.627 159.725V151.58L403.728 145.252H411.873L410.974 173.279L408.259 175.096H404.627C403.585 175.096 400.571 168.162 395.584 154.295H394.685V175.096H389.255L390.173 152.479H388.357V145.252H395.584C396.547 145.252 399.262 150.076 403.728 159.725H404.627ZM414.607 146.033L425.857 145.096H432.419V154.471H428.669V150.721H423.982L422.107 152.596V169.471L423.982 171.346H429.607V166.658H426.794V161.033H435.232L436.169 170.408V175.096H424.919L413.669 173.221L414.607 147.908V146.033ZM453.806 145.096H456.521L470.173 146.014V147.83L469.255 154.178L458.337 151.463H456.521L454.705 153.279V155.096L469.255 163.279L471.072 168.729C471.072 172.973 463.8 175.096 449.255 175.096V173.279L450.173 166.912L459.255 167.83C462.393 167.83 464.21 166.919 464.705 165.096C454.405 160.994 449.255 156.45 449.255 151.463C449.255 148.559 450.772 146.437 453.806 145.096ZM486.716 145.252H488.65C493.78 145.252 496.345 150.389 496.345 160.662V168.357C496.345 172.85 492.491 175.096 484.783 175.096H479.978C475.486 175.096 473.24 172.205 473.24 166.424V161.619C473.24 151.346 474.522 146.209 477.087 146.209L486.716 145.252ZM479.021 162.576V169.314L480.935 171.248H487.673L488.65 166.424C488.65 156.801 487.042 151.99 483.826 151.99H482.869C480.304 151.99 479.021 155.519 479.021 162.576ZM512.029 145.252H513.962C519.093 145.252 521.658 150.389 521.658 160.662V168.357C521.658 172.85 517.804 175.096 510.095 175.096H505.291C500.798 175.096 498.552 172.205 498.552 166.424V161.619C498.552 151.346 499.835 146.209 502.4 146.209L512.029 145.252ZM504.334 162.576V169.314L506.248 171.248H512.986L513.962 166.424C513.962 156.801 512.354 151.99 509.138 151.99H508.181C505.616 151.99 504.334 155.519 504.334 162.576ZM540.134 159.725V151.58L539.236 145.252H547.38L546.482 173.279L543.767 175.096H540.134C539.093 175.096 536.078 168.162 531.091 154.295H530.193V175.096H524.763L525.681 152.479H523.865V145.252H531.091C532.055 145.252 534.77 150.076 539.236 159.725H540.134ZM556.677 145.096V146.033L553.865 165.721L550.115 166.658V157.283L549.177 146.033L556.677 145.096ZM554.802 170.408L555.74 174.158L554.802 175.096H549.177V170.408H554.802Z" fill="white"/>
</g>
<defs>
<filter id="filter0_d_10_7223" x="0.494324" y="1.29053" width="590.36" height="215.471" filterUnits="userSpaceOnUse" color-interpolation-filters="sRGB">
<feFlood flood-opacity="0" result="BackgroundImageFix"/>
<feColorMatrix in="SourceAlpha" type="matrix" values="0 0 0 0 0 0 0 0 0 0 0 0 0 0 0 0 0 0 127 0" result="hardAlpha"/>
<feOffset dx="1" dy="5"/>
<feComposite in2="hardAlpha" operator="out"/>
<feColorMatrix type="matrix" values="0 0 0 0 0.772005 0 0 0 0 0.760087 0 0 0 0 0.628988 0 0 0 1 0"/>
<feBlend mode="normal" in2="BackgroundImageFix" result="effect1_dropShadow_10_7223"/>
<feBlend mode="normal" in="SourceGraphic" in2="effect1_dropShadow_10_7223" result="shape"/>
</filter>
<filter id="filter1_d_10_7223" x="481.886" y="20.0957" width="98.119" height="59.9209" filterUnits="userSpaceOnUse" color-interpolation-filters="sRGB">
<feFlood flood-opacity="0" result="BackgroundImageFix"/>
<feColorMatrix in="SourceAlpha" type="matrix" values="0 0 0 0 0 0 0 0 0 0 0 0 0 0 0 0 0 0 127 0" result="hardAlpha"/>
<feOffset dx="-2" dy="3"/>
<feComposite in2="hardAlpha" operator="out"/>
<feColorMatrix type="matrix" values="0 0 0 0 0.854902 0 0 0 0 0.172549 0 0 0 0 0.686275 0 0 0 1 0"/>
<feBlend mode="normal" in2="BackgroundImageFix" result="effect1_dropShadow_10_7223"/>
<feBlend mode="normal" in="SourceGraphic" in2="effect1_dropShadow_10_7223" result="shape"/>
</filter>
<filter id="filter2_d_10_7223" x="292.185" y="145.096" width="264.492" height="36" filterUnits="userSpaceOnUse" color-interpolation-filters="sRGB">
<feFlood flood-opacity="0" result="BackgroundImageFix"/>
<feColorMatrix in="SourceAlpha" type="matrix" values="0 0 0 0 0 0 0 0 0 0 0 0 0 0 0 0 0 0 127 0" result="hardAlpha"/>
<feOffset dx="-5" dy="6"/>
<feComposite in2="hardAlpha" operator="out"/>
<feColorMatrix type="matrix" values="0 0 0 0 0.0485626 0 0 0 0 0.132582 0 0 0 0 0.287695 0 0 0 1 0"/>
<feBlend mode="normal" in2="BackgroundImageFix" result="effect1_dropShadow_10_7223"/>
<feBlend mode="normal" in="SourceGraphic" in2="effect1_dropShadow_10_7223" result="shape"/>
</filter>
</defs>
</svg>
