<svg width="44" height="36" viewBox="0 0 44 36" fill="none" xmlns="http://www.w3.org/2000/svg">
<path d="M14.1898 35.1247C30.093 35.1247 38.7938 21.9459 38.7938 10.5207C38.7938 10.1503 38.7855 9.77153 38.7691 9.40104C40.4616 8.177 41.9223 6.66086 43.0824 4.92386C41.5061 5.62519 39.8324 6.08323 38.1186 6.28232C39.9231 5.20068 41.2742 3.50147 41.9215 1.49969C40.2239 2.50574 38.3675 3.21543 36.4317 3.59832C35.1274 2.21243 33.4028 1.29481 31.5247 0.987321C29.6466 0.679836 27.7195 0.999615 26.0413 1.89722C24.3632 2.79482 23.0274 4.22025 22.2406 5.95313C21.4539 7.68601 21.2598 9.62982 21.6886 11.484C18.2512 11.3115 14.8885 10.4186 11.8184 8.86312C8.74827 7.30764 6.03931 5.12433 3.86712 2.45474C2.7631 4.3582 2.42527 6.61061 2.92228 8.75421C3.4193 10.8978 4.71387 12.7717 6.54289 13.9951C5.16977 13.9515 3.82673 13.5818 2.62474 12.9166V13.0236C2.62351 15.0212 3.31408 16.9575 4.57906 18.5034C5.84404 20.0494 7.60537 21.1096 9.56363 21.5038C8.29165 21.8518 6.95666 21.9025 5.66194 21.652C6.21453 23.3698 7.28965 24.8724 8.73728 25.9498C10.1849 27.0273 11.9328 27.6259 13.737 27.6621C10.674 30.0682 6.89025 31.3732 2.99523 31.3671C2.30448 31.366 1.61441 31.3237 0.928711 31.2403C4.88564 33.7788 9.4886 35.1271 14.1898 35.1247Z" fill="white"/>
</svg>
