<svg width="208" height="203" viewBox="0 0 208 203" fill="none" xmlns="http://www.w3.org/2000/svg">
<g id="Group 1244833085">
<path id="Vector" d="M76.378 179.982C76.378 179.982 26.676 108.848 9.10435 81.0787C-8.46727 53.3093 44.19 36.7678 51.3176 55.2318C57.9182 72.3305 93.8029 176.349 93.8029 176.349L76.378 179.982Z" fill="#E261A5"/>
<g id="Vector_2" style="mix-blend-mode:screen" opacity="0.5">
<path d="M55.0365 65.351C56.4948 69.3986 58.2256 74.2595 60.1192 79.6506C58.7341 80.0549 57.2743 80.3734 55.6725 80.5939C41.9168 82.4556 28.7869 77.4683 15.4182 83.3537C14.2061 83.8822 12.9344 84.4723 11.6755 85.0956C10.7518 83.674 9.89649 82.3214 9.10425 81.0784C8.29274 79.7855 7.65825 78.5194 7.13358 77.2682C10.7273 75.0863 14.428 73.0736 18.3338 71.2683C24.9641 68.2126 31.6869 67.8781 38.7852 67.1679C43.0603 66.7508 50.4156 66.7066 55.0365 65.351ZM66.1591 148.492C71.3448 146.496 77.1884 145.718 82.7539 144.436C84.2929 148.854 85.7227 152.99 87.0291 156.752C85.5623 156.728 84.0463 156.686 82.4462 156.695C75.3957 156.774 69.0812 157.734 62.5519 160.081C60.8962 157.68 59.1219 155.134 57.2781 152.461C60.2579 150.901 63.316 149.597 66.1591 148.492ZM61.5577 93.6817C62.5116 93.0237 63.4475 92.3727 64.3705 91.6885C65.6501 95.3269 66.963 99.1057 68.3132 102.927C62.5172 106.31 57.4437 108.435 50.628 108.691C45.5573 108.881 40.4999 107.649 35.4531 107.523C32.5556 107.462 29.8795 107.813 27.2478 108.549C26.0805 106.82 24.9441 105.117 23.8206 103.447C29.5157 101.368 35.0963 100.826 41.7572 100.439C49.178 100.025 55.323 97.924 61.5577 93.6817ZM74.0865 119.448C75.5612 123.699 77.0413 127.911 78.4582 132.013C68.5506 134.887 57.4025 132.174 47.5365 136.775C47.2713 136.897 47.0189 137.053 46.7537 137.175C45.2732 135.012 43.7553 132.807 42.2439 130.618C47.6708 127.628 53.5125 125.281 59.3063 123.565C64.3139 122.078 69.4308 121.468 74.0749 119.471L74.0865 119.448Z" fill="#E561C4"/>
</g>
<path id="Vector_3" d="M29.4606 65.8332C21.3794 68.9742 13.7636 68.7624 12.4503 65.3602C11.1369 61.958 16.6234 56.6538 24.7046 53.5128C32.7858 50.3718 40.4016 50.5835 41.7149 53.9857C43.0282 57.3879 37.5418 62.6922 29.4606 65.8332Z" fill="#AA497D"/>
<path id="Vector_4" d="M106.53 175.653C106.53 175.653 67.686 62.9429 64.121 47.2875C60.5559 31.6321 93.546 21.8158 106.835 30.3984C120.124 38.981 117.073 173.183 117.073 173.183L106.53 175.653Z" fill="#E261A5"/>
<path id="Vector_5" d="M102.746 35.7215C103.289 39.3399 96.8406 43.5693 88.3484 45.1468C79.8562 46.7242 72.5392 45.0877 71.9963 41.4693C71.4534 37.8509 77.9014 33.6215 86.3936 32.044C94.8858 30.4665 102.203 32.103 102.746 35.7215Z" fill="#AA497D"/>
<g id="Vector_6" style="mix-blend-mode:screen" opacity="0.5">
<path d="M91.3408 104.259C100.555 100.505 107.195 93.2141 116.403 89.4438C116.603 94.1148 116.767 98.8568 116.889 103.596C116.798 103.631 116.69 103.674 116.606 103.726C110.207 106.787 105.22 111.674 98.6215 114.488C94.3267 116.31 90.5519 117.375 86.6898 117.459C85.3489 113.5 84.0196 109.517 82.6967 105.551C85.5102 105.664 88.3657 105.454 91.3525 104.235L91.3408 104.259ZM112.187 43.8847C112 43.9955 111.832 44.0991 111.652 44.2265C103.507 49.3455 97.2247 56.9186 88.0988 60.5231C80.5484 63.5152 75.0022 63.0668 68.2641 61.4734C67.0137 57.4789 65.9702 54.0742 65.2287 51.452C67.5929 51.9117 69.9337 52.4188 72.2927 52.9188C78.5751 54.249 84.4297 51.9351 89.7677 48.1754C96.4067 43.4697 102.169 37.5728 109.047 33.2148C110.264 35.6136 111.307 39.2866 112.211 43.8944L112.187 43.8847ZM114.075 56.7071C114.534 60.7026 114.927 65.0112 115.258 69.5356C109.779 71.4737 104.93 76.5557 100.202 80.3847C93.4866 85.8095 86.2546 90.3819 77.8856 91.1456C76.6206 87.3291 75.3878 83.596 74.2192 80.0292C75.3875 80.0347 76.5717 79.919 77.7769 79.6421C83.9487 78.258 88.3094 74.6101 92.9266 70.7094C99.7448 64.9574 105.586 59.3173 114.057 56.7141L114.075 56.7071ZM106.513 136.388C110.257 134.971 113.767 131.98 117.325 129.544C117.358 135.294 117.379 140.743 117.372 145.743C112.084 148.985 106.646 151.731 100.092 150.775C99.2984 150.662 98.5583 150.471 97.8298 150.256C96.2113 145.524 94.462 140.345 92.6098 134.899C97.5492 136.311 102.469 137.941 106.556 136.391L106.513 136.388ZM105.867 156.131C109.595 155.161 113.447 154.889 117.289 155.023C117.262 159.591 117.202 163.482 117.154 166.488C112.718 165.895 108.098 166.12 103.498 166.989C102.599 164.39 101.549 161.294 100.346 157.799C102.237 157.14 104.087 156.593 105.842 156.122L105.867 156.131Z" fill="#E561C4"/>
</g>
<path id="Vector_7" d="M133.37 167.385C133.37 167.385 126.08 91.6376 123.768 59.1051C121.463 26.5892 161.145 32.7063 168.558 44.6259C179.281 61.8838 145.331 167.943 145.331 167.943L133.381 167.361L133.37 167.385Z" fill="#E261A5"/>
<path id="Vector_8" d="M163.427 46.333C162.998 50.0229 155.726 52.6577 147.211 52.2337C138.696 51.8096 132.141 48.479 132.57 44.7891C133 41.0993 140.271 38.4643 148.786 38.8884C157.301 39.3125 163.856 42.6431 163.427 46.333Z" fill="#AA497D"/>
<g id="Vector_9" style="mix-blend-mode:screen" opacity="0.5">
<path d="M156.866 128.497C155.673 132.905 154.506 137.112 153.382 141.052C148.786 142.149 143.623 145.229 140.529 147.14C137.657 148.926 134.943 151.015 131.983 152.625C131.672 149.338 131.322 145.625 130.953 141.594C133.426 139.638 135.785 137.495 138.465 135.86C144.06 132.441 150.237 128.967 156.884 128.49L156.866 128.497ZM170.189 49.6596C170.649 52.5251 170.741 56.1081 170.522 60.2335C166.558 60.1083 162.774 61.9046 159.001 63.352C150.381 66.7024 143.465 73.3348 133.903 74.0834C129.942 74.3974 127.33 73.4024 124.69 71.3649C124.361 67.2228 124.058 63.4156 123.83 60.0194C125.219 60.7049 126.635 61.5139 128.175 62.428C133.818 65.8255 137.968 63.4658 143.043 60.2106C147.144 57.5633 151.427 55.4393 155.945 53.549C160.675 51.5577 165.431 49.9581 170.2 49.636L170.189 49.6596ZM144.89 107.724C150.396 105.91 156.649 105.222 162.66 105.796C161.753 109.595 160.82 113.385 159.869 117.125C158.719 117.112 157.606 117.143 156.58 117.235C152.517 117.608 147.803 119.478 144.042 121.227C140.191 123.012 138.136 126.05 134.958 128.664C133.457 129.899 131.799 130.945 130.034 131.823C129.602 127.089 129.141 122.117 128.677 117.032C130.33 115.432 131.926 113.74 133.708 112.53C137.111 110.231 141.034 109.012 144.915 107.734L144.89 107.724ZM148.856 78.9367C155.894 76.7756 162.147 77.5999 168.019 80.2388C167.152 85.1707 166.109 90.344 164.976 95.6095C161.085 92.8136 156.913 90.8546 151.484 92.5436C143.546 95.0163 136.159 103.019 127.341 102.349C126.889 97.2396 126.438 92.1876 126.027 87.2925C127.404 88.2699 128.963 88.9087 130.835 88.5256C132.301 88.2238 134.632 86.169 135.827 85.3792C139.95 82.6276 144.085 80.389 148.849 78.9201L148.856 78.9367Z" fill="#E561C4"/>
</g>
</g>
</svg>
