<svg width="220" height="254" viewBox="0 0 220 254" fill="none" xmlns="http://www.w3.org/2000/svg">
<g id="Group 1244833101">
<path id="Vector" d="M65.1641 216.654C72.2055 215.63 75.9812 206.878 74.9401 199.731C73.899 192.585 69.62 186.493 66.446 180.054C63.272 173.614 61.2141 165.698 64.6135 159.271C67.7502 153.351 74.5371 150.568 79.1162 145.72C85.4823 138.979 87.0104 128.773 85.8288 119.573C84.6416 110.388 81.1416 101.739 78.7465 92.8271C76.3372 83.9096 75.0642 74.1832 78.2945 65.438C81.5248 56.6928 90.4494 49.5467 99.3589 51.1663C85.8493 50.0856 71.5325 52.4825 60.418 60.6524C49.3178 68.8278 42.2311 83.5674 45.4382 96.9961C46.8788 103.029 50.1839 108.368 52.404 114.129C54.6241 119.891 55.6737 126.719 52.6454 132.19C47.8245 140.923 35.2863 142.085 29.5973 150.259C24.5505 157.498 26.7917 167.738 31.6192 174.959C36.4467 182.18 43.4468 187.575 48.7369 194.451C54.0326 201.313 57.5557 210.836 53.974 218.918" fill="url(#paint0_linear_1762_5555)"/>
<path id="Vector_2" d="M82.0836 222.759C67.8772 209.366 65.5897 184.715 77.0163 168.369C82.4912 160.535 90.7992 154.13 92.7416 144.763C96.0273 128.927 79.5555 111.753 88.2101 98.1009C93.6392 89.5377 105.789 88.6984 113.12 81.7592C118.816 76.3652 120.798 68.0806 121.796 60.2576C122.793 52.4347 123.157 44.2963 126.656 37.231C130.155 30.1657 138.009 24.4638 145.377 26.5815C138.472 35.0079 142.167 47.5606 146.341 57.5234C150.501 67.4807 154.602 79.7516 148.185 88.5721C140.232 99.4848 121.505 97.0592 114.357 108.524C108.689 117.62 113.971 129.303 119.365 138.37C124.758 147.438 130.369 158.826 125.18 168.211C120.719 176.272 110.611 178.418 102.042 181.385C93.4735 184.352 84.0407 191.621 85.9017 200.595C86.888 205.299 90.8351 208.772 92.2468 213.354C93.6585 217.936 89.5369 224.656 85.4701 222.254" fill="url(#paint1_linear_1762_5555)"/>
<path id="Vector_3" d="M82.6083 217.766C76.8808 208.584 83.6339 195.763 92.8929 190.086C102.158 184.393 113.279 183.152 123.33 179.121C133.38 175.091 143.292 166.248 142.687 155.309C142.068 144.196 130.738 135.128 132.922 124.162C134.468 116.452 142.223 111.642 149.666 109.624C157.11 107.605 165.048 107.321 171.995 103.873C185.177 97.3238 191.195 78.8136 184.373 65.8008C193.809 70.9789 200.327 81.2146 201.218 92.1801C202.109 103.146 197.306 114.544 188.852 121.536C180.904 128.115 169.383 131.91 166.319 141.838C162.515 154.22 175.065 166.881 171.673 179.389C169.308 188.066 160.075 192.958 151.409 194.566C142.743 196.175 133.713 195.626 125.37 198.563C117.027 201.5 109.254 209.705 110.892 218.491C99.8891 215.02 87.2626 217.129 77.7441 224.026" fill="url(#paint2_linear_1762_5555)"/>
<path id="Vector_4" d="M72.9047 60.893C72.9047 60.893 54.016 73.9661 59.0377 93.2689C64.0594 112.572 74.8697 133.697 58.9794 147.942C43.0892 162.187 39.4138 172.756 61.1681 201.275" stroke="#62883F" stroke-width="0.79" stroke-linecap="round" stroke-linejoin="round"/>
<path id="Vector_5" d="M135.391 35.9542C135.391 35.9542 126.393 56.8893 131.416 69.5377C136.445 82.1713 119.265 89.6979 109.978 98.074C100.677 106.445 91.3143 120.565 99.4934 136.225C107.678 151.871 102.353 166.689 93.2802 173.371C84.207 180.053 72.1336 190.015 78.2851 205.306" stroke="#62883F" stroke-width="0.79" stroke-linecap="round" stroke-linejoin="round"/>
<path id="Vector_6" d="M192.784 83.2786C192.784 83.2786 193.836 102.808 182.442 109.92C171.047 117.032 153.648 115.126 150.274 129.369C146.899 143.612 166.332 172.56 152.687 178.776C139.036 185.006 118.86 186.908 107.925 195.08C96.9766 203.247 95.1861 214.553 95.1861 214.553" stroke="#62883F" stroke-width="0.79" stroke-linecap="round" stroke-linejoin="round"/>
</g>
<defs>
<linearGradient id="paint0_linear_1762_5555" x1="77.9434" y1="66.1306" x2="42.8194" y2="219.478" gradientUnits="userSpaceOnUse">
<stop stop-color="#83B554"/>
<stop offset="1" stop-color="#52B554"/>
</linearGradient>
<linearGradient id="paint1_linear_1762_5555" x1="137.485" y1="54.113" x2="68.6414" y2="229.138" gradientUnits="userSpaceOnUse">
<stop stop-color="#83B554"/>
<stop offset="1" stop-color="#52B554"/>
</linearGradient>
<linearGradient id="paint2_linear_1762_5555" x1="186.872" y1="101.898" x2="100.461" y2="222.038" gradientUnits="userSpaceOnUse">
<stop stop-color="#83B554"/>
<stop offset="1" stop-color="#52B554"/>
</linearGradient>
</defs>
</svg>
